<svg width="29" height="28" viewBox="0 0 29 28" fill="none" xmlns="http://www.w3.org/2000/svg">
<path d="M20.1811 0.804688C18.6598 0.89309 16.9133 1.74063 15.8749 2.81993C14.9368 3.8016 14.1966 5.25954 14.4987 6.67003C16.152 6.71357 17.8114 5.84408 18.805 4.74498C19.7325 3.71713 20.4358 2.28247 20.1811 0.804688ZM20.2713 6.66745C17.8844 6.66745 16.8865 8.13379 15.2332 8.13379C13.5324 8.13379 11.9777 6.76023 9.91934 6.76023C7.11948 6.76155 2.8634 9.35512 2.8634 15.4655C2.8634 21.0243 7.90059 27.1936 10.744 27.1936C12.4711 27.2107 12.8899 26.1076 15.2332 26.0958C17.5792 26.0786 18.0854 27.2081 19.8152 27.1936C21.7627 27.1791 23.2836 25.039 24.3946 23.3435C25.1915 22.1296 25.5191 21.5099 26.1367 20.1376C21.5542 18.9765 20.6425 11.5868 26.1367 10.0588C25.0996 8.28946 22.0723 6.66745 20.2713 6.66745Z" fill="black"/>
</svg>
