<svg width="18" height="33" viewBox="0 0 18 33" fill="none" xmlns="http://www.w3.org/2000/svg">
<path d="M11.0384 0.933902C11.254 0.898608 11.6618 0.855472 11.9403 0.839786C12.2187 0.820178 12.7323 0.816257 13.0774 0.8241C13.4225 0.831943 14.0577 0.867236 14.4891 0.898608C14.9204 0.929981 15.6066 1.00057 16.0184 1.05155C16.4301 1.10253 16.8379 1.16135 17.0967 1.20841V6.12991L15.4615 6.14167C13.9244 6.15736 13.8029 6.16128 13.4891 6.24363C13.3049 6.29069 13.0147 6.39657 12.8421 6.48284C12.6696 6.56519 12.4461 6.70245 12.3481 6.7848C12.25 6.86715 12.0853 7.03185 11.9834 7.1495C11.8854 7.26714 11.7403 7.48675 11.6658 7.63969C11.5913 7.79263 11.4932 8.05537 11.4422 8.22791C11.3563 8.5325 11.356 8.59989 11.3328 12.9373L11.3325 12.9926H16.8614L16.8418 13.118C16.834 13.1886 16.634 14.4866 15.9792 18.7572H11.3325V25.7571C11.3325 32.3923 11.3285 32.757 11.2658 32.7766C11.2266 32.7844 10.9835 32.8197 10.7247 32.8511C10.4659 32.8825 10.0345 32.9295 9.76395 32.957C9.49338 32.9805 8.79932 33.0001 8.21505 33.0001C7.63078 33.0001 6.92495 32.9805 6.64654 32.957L6.60405 32.9528C6.32474 32.9253 5.91223 32.8846 5.66623 32.8511C5.40742 32.8197 5.16431 32.7844 5.12901 32.7766C5.06235 32.757 5.05843 32.3923 5.05843 18.7572H0V12.9926H5.05843V10.7494C5.05843 9.51417 5.07412 8.22791 5.09764 7.89459C5.11725 7.56126 5.17215 7.07499 5.21528 6.81617C5.25842 6.55735 5.3486 6.14167 5.41527 5.89461C5.48193 5.64756 5.61525 5.25149 5.70936 5.01227C5.80739 4.77306 5.97993 4.41228 6.09757 4.20836C6.21128 4.00445 6.41519 3.6868 6.55243 3.50249C6.68576 3.31818 6.96809 3.00054 7.17591 2.79662C7.38374 2.5927 7.70921 2.31035 7.90527 2.17702C8.09741 2.03977 8.40327 1.84369 8.58757 1.74565C8.77187 1.64762 9.10518 1.49076 9.33261 1.39664C9.56004 1.30645 9.94825 1.18096 10.1953 1.11821C10.4423 1.05155 10.8227 0.969196 11.0384 0.933902Z" fill="white"/>
</svg>
