<svg width="25" height="24" viewBox="0 0 25 24" fill="none" xmlns="http://www.w3.org/2000/svg">
<g clip-path="url(#clip0_251_3369)">
<path fill-rule="evenodd" clip-rule="evenodd" d="M24.1233 12.2668C24.1233 11.2801 24.0432 10.5601 23.87 9.81348H12.6033V14.2668H19.2165C19.0833 15.3735 18.3633 17.0401 16.7632 18.1601L16.7408 18.3092L20.3031 21.0689L20.5499 21.0935C22.8166 19.0002 24.1233 15.9202 24.1233 12.2668Z" fill="#4285F4"/>
<path fill-rule="evenodd" clip-rule="evenodd" d="M12.6034 23.9997C15.8433 23.9997 18.5633 22.933 20.55 21.093L16.7633 18.1596C15.75 18.8663 14.39 19.3596 12.6034 19.3596C9.43006 19.3596 6.73675 17.2664 5.77663 14.373L5.63594 14.385L1.93176 17.2517L1.8833 17.3863C3.85661 21.3063 7.90999 23.9997 12.6034 23.9997Z" fill="#34A853"/>
<path fill-rule="evenodd" clip-rule="evenodd" d="M5.77648 14.3732C5.52318 13.6265 5.37652 12.8265 5.37652 11.9998C5.37652 11.1731 5.52311 10.3731 5.76316 9.6265L5.75646 9.46745L2.0059 6.55469L1.88322 6.61308C1.0699 8.23978 0.603271 10.0664 0.603271 11.9998C0.603271 13.9331 1.06998 15.7597 1.88322 17.3864L5.77655 14.3731" fill="#FBBC04"/>
<path fill-rule="evenodd" clip-rule="evenodd" d="M12.6034 4.6399C14.8567 4.6399 16.3766 5.61327 17.2434 6.42665L20.63 3.11998C18.5501 1.18663 15.8433 0 12.6034 0C7.91 0 3.85668 2.69331 1.8833 6.61328L5.76331 9.6267C6.73675 6.73338 9.43006 4.63997 12.6034 4.63997" fill="#EA4335"/>
</g>
<defs>
<clipPath id="clip0_251_3369">
<rect width="23.52" height="24" fill="white" transform="translate(0.603271)"/>
</clipPath>
</defs>
</svg>
