<svg width="40" height="40" viewBox="0 0 40 40" fill="none" xmlns="http://www.w3.org/2000/svg">
<path d="M10 21.1111C12.2222 21.1111 15.5556 21.1679 15.5556 23.8889V27.2222C15.5556 29.8467 12.2222 30 10 30V21.1111ZM30 21.1111C27.7778 21.1111 24.4444 21.2644 24.4444 23.8889V27.2222C24.4444 29.8467 27.7778 30 30 30V21.1111Z" fill="#7100BF"/>
<path d="M10 21.1111C12.2222 21.1111 15.5556 21.1679 15.5556 23.8889V27.2222C15.5556 29.8467 12.2222 30 10 30V21.1111ZM10 21.1111C10 21.1111 10 20.4339 10 20C10 20 10 11 20 11C30 11 30 20 30 20C30 20.4339 30 21.1111 30 21.1111M30 21.1111C27.7778 21.1111 24.4444 21.2644 24.4444 23.8889V27.2222C24.4444 29.8467 27.7778 30 30 30M30 21.1111V30M30 30V35H16V33C16.1667 32.3333 17 31 19 31C21 31 21.8333 32.3333 22 33" stroke="#7100BF" stroke-width="2" stroke-linecap="round" stroke-linejoin="round"/>
</svg>
