<svg width="47" height="50" viewBox="0 0 47 50" fill="none" xmlns="http://www.w3.org/2000/svg">
<path d="M13.898 8.70272C12.7172 6.62025 10.0264 5.88355 8.22145 7.45616C5.42203 9.89516 3.20902 12.9846 1.78506 16.489C-0.193908 21.3593 -0.538125 26.7586 0.805859 31.8485C2.14984 36.9384 5.10682 41.4341 9.2176 44.6374C13.3284 47.8407 18.3629 49.5723 23.5395 49.5635C28.716 49.5546 33.7448 47.8058 37.845 44.5884C41.9452 41.3711 44.8873 36.8653 46.2145 31.7708C47.5417 26.6764 47.1797 21.2782 45.1846 16.4147C43.7491 12.9153 41.526 9.83353 38.7186 7.40414C36.9084 5.83759 34.2201 6.58333 33.0462 8.66975C31.8978 10.7108 32.6604 13.2633 34.2785 14.9563C35.5891 16.3275 36.6444 17.9457 37.3782 19.7345C38.655 22.8471 38.8867 26.3019 38.0373 29.5624C37.1879 32.8229 35.3049 35.7065 32.6808 37.7656C30.0567 39.8247 26.8382 40.944 23.5253 40.9497C20.2123 40.9554 16.9902 39.8471 14.3593 37.797C11.7284 35.7469 9.8359 32.8696 8.97575 29.6121C8.1156 26.3545 8.3359 22.899 9.60244 19.782C10.3304 17.9905 11.3805 16.3685 12.6868 14.9927C14.2992 13.2945 15.0531 10.7397 13.898 8.70272Z" fill="#E3E3E3"/>
<rect x="19.6545" width="7.69091" height="26.4909" rx="3.84545" fill="#E3E3E3"/>
</svg>
