<svg width="40" height="40" viewBox="0 0 40 40" fill="none" xmlns="http://www.w3.org/2000/svg">
<path d="M29.5908 27.5H10.4092C9.89371 27.5 9.46266 27.1081 9.41376 26.5949L8.29864 14.8914C8.20611 13.9203 9.41654 13.405 10.0524 14.1447L13.9641 18.695C14.4441 19.2534 15.3425 19.1191 15.6382 18.4448L19.0356 10.6988C19.3927 9.88463 20.5551 9.90635 20.8816 10.7333L23.9145 18.4169C24.1854 19.103 25.0805 19.2697 25.5802 18.7272L29.9872 13.9425C30.6362 13.2378 31.8091 13.7611 31.7182 14.7149L30.5862 26.5949C30.5373 27.1081 30.1063 27.5 29.5908 27.5Z" fill="url(#paint0_linear_308_1532)"/>
<defs>
<linearGradient id="paint0_linear_308_1532" x1="9.5" y1="27.7714" x2="29.5" y2="20" gradientUnits="userSpaceOnUse">
<stop stop-color="#FF097F"/>
<stop offset="1" stop-color="#6248FF"/>
</linearGradient>
</defs>
</svg>
