<svg width="138" height="64" viewBox="0 0 138 64" fill="none" xmlns="http://www.w3.org/2000/svg">
<path fill-rule="evenodd" clip-rule="evenodd" d="M33.4527 0.946289C33.5424 0.946289 33.7182 1.01755 34.0322 1.18256C34.279 1.31008 34.608 1.5051 34.7613 1.61011C34.9146 1.71887 35.18 1.92889 35.3445 2.07891C35.5127 2.22893 35.7558 2.46895 35.8866 2.61522C36.0175 2.76148 36.2231 3.00526 36.3427 3.15903C36.4661 3.31279 36.7241 3.67658 36.9148 3.96536C37.1017 4.25414 37.326 4.61793 37.4083 4.7717C37.4905 4.92547 37.7036 5.41677 37.8794 5.85932C38.0551 6.30186 38.2158 6.75941 38.2383 6.87192C38.2607 6.98444 38.2645 7.1382 38.2532 7.20946C38.2383 7.28072 38.1934 7.40448 38.1485 7.48699C38.1074 7.56575 38.0027 7.67076 37.9205 7.71952C37.8382 7.76452 37.6962 7.81703 37.6027 7.83203C37.4868 7.84703 37.3896 7.83578 37.2849 7.79452C37.2027 7.76452 37.0718 7.67451 36.997 7.59575C36.9036 7.49824 36.7764 7.27322 36.6119 6.90943C36.4773 6.6094 36.2493 6.14435 36.1109 5.87807C35.9726 5.61179 35.752 5.21425 35.6212 4.99672C35.4941 4.7792 35.251 4.40791 35.0865 4.17164C34.922 3.93536 34.6902 3.62408 34.5781 3.47781C34.4622 3.33155 34.2117 3.03901 34.021 2.82149C33.8266 2.60397 33.5424 2.23268 33.3854 1.9964C33.1274 1.60636 33.0975 1.54635 33.0863 1.35883C33.0826 1.24632 33.09 1.13381 33.105 1.11506C33.12 1.09255 33.176 1.04755 33.2284 1.0138C33.2807 0.980043 33.3817 0.950039 33.4527 0.946289V0.946289ZM27.396 7.63326C27.6764 7.64076 27.7474 7.65951 27.9942 7.77952C28.1624 7.86203 28.3755 8.01205 28.5325 8.15456C28.6746 8.28583 28.9288 8.57836 29.0971 8.80338C29.2691 9.02841 29.5495 9.4372 29.7252 9.70348C29.8972 9.96976 30.1626 10.4011 30.3122 10.6598C30.458 10.9186 30.9291 11.83 31.3553 12.685C31.7815 13.5401 32.3124 14.6465 32.533 15.1416C32.7573 15.6366 33.1499 16.5292 33.4041 17.1293C33.6621 17.7293 34.0359 18.6219 34.2378 19.117C34.4397 19.612 34.8809 20.6997 35.2211 21.536C35.5613 22.3723 36.1259 23.7375 36.4736 24.5738C36.825 25.4102 37.2363 26.3965 37.3896 26.7678C37.5429 27.1391 37.6812 27.4429 37.6962 27.4429C37.7149 27.4429 37.999 26.7003 38.3317 25.7927C38.6645 24.8851 39.0421 23.8725 39.1692 23.5425C39.2963 23.2124 39.487 22.7661 39.588 22.5486C39.6926 22.3311 39.8534 22.0273 39.9469 21.8735C40.0403 21.7198 40.1936 21.491 40.2871 21.3672C40.3806 21.2435 40.5862 21.0109 40.7395 20.8497C40.8965 20.6884 41.1321 20.4709 41.2666 20.3734C41.4012 20.2721 41.6704 20.1146 41.8648 20.0246C42.0593 19.9308 42.3284 19.8296 42.463 19.7921C42.5976 19.7583 42.8743 19.7208 43.0799 19.7096C43.3529 19.6946 43.5398 19.7058 43.7716 19.7508C43.9697 19.7921 44.224 19.8783 44.4446 19.9871C44.7474 20.1333 44.8483 20.2084 45.1175 20.4821C45.2933 20.6584 45.4914 20.8984 45.555 21.0109C45.6223 21.1235 45.7681 21.4272 45.8802 21.686C45.9887 21.9448 46.1307 22.3048 46.1943 22.4924C46.2579 22.6799 46.3438 22.9649 46.3887 23.1299C46.4298 23.2949 46.4896 23.5725 46.5196 23.7487C46.5495 23.925 46.5906 24.2288 46.613 24.4238C46.6355 24.6188 46.6542 25.1439 46.6542 25.5864C46.6542 26.029 46.628 26.6778 46.5943 27.0303C46.5607 27.3791 46.4523 28.2567 46.3513 28.9805C46.2504 29.7006 46.1419 30.537 46.112 30.837C46.0784 31.137 46.0335 31.5908 46.0111 31.8496C45.9887 32.1084 45.9625 32.9522 45.9513 33.7248C45.9363 34.6174 45.9475 35.3787 45.9737 35.8063C45.9961 36.1776 46.0522 36.7851 46.0896 37.1564C46.1307 37.5277 46.1906 38.139 46.2205 38.5141C46.2504 38.8929 46.2878 39.6429 46.299 40.183C46.3139 40.7606 46.3064 41.5331 46.2803 42.0507C46.2578 42.5345 46.213 43.1946 46.1831 43.5134C46.1532 43.8321 46.0933 44.3834 46.056 44.7322C46.0148 45.081 45.9625 45.6736 45.9401 46.0449C45.9139 46.4462 45.9027 47.1625 45.9139 47.8076C45.9251 48.5614 45.9513 49.0152 45.9924 49.289C46.0298 49.5065 46.0971 49.8515 46.1494 50.0578C46.2018 50.2641 46.284 50.5604 46.3364 50.7141C46.3887 50.8679 46.5457 51.2317 46.6915 51.5205C46.8336 51.8092 47.0505 52.1805 47.1738 52.3456C47.2935 52.5106 47.443 52.7206 47.4991 52.8144C47.5627 52.9194 47.6075 53.0544 47.615 53.1706C47.6225 53.2719 47.6075 53.4557 47.5814 53.5757C47.529 53.797 47.529 53.797 47.2673 53.9432C47.1252 54.022 46.9832 54.0895 46.9607 54.0895C46.9346 54.0895 46.7439 53.9845 46.5345 53.8532C46.284 53.6994 46.0709 53.5307 45.9064 53.3544C45.7718 53.2119 45.5512 52.9306 45.4241 52.7356C45.2933 52.5406 45.0951 52.1955 44.9867 51.9705C44.8783 51.7455 44.7287 51.3892 44.6577 51.1829C44.5866 50.9767 44.4782 50.5904 44.4147 50.3203C44.3511 50.0503 44.2651 49.5965 44.2202 49.3077C44.1791 49.0189 44.1305 48.4639 44.1118 48.0701C44.0894 47.6313 44.0856 47.0687 44.1081 46.6074C44.1268 46.1949 44.1829 45.3848 44.2352 44.8072C44.2875 44.2297 44.3511 43.4684 44.3773 43.1196C44.3997 42.7708 44.4221 41.8557 44.4221 41.0943C44.4221 40.2655 44.4034 39.5117 44.3773 39.2191C44.3511 38.9491 44.2875 38.3753 44.2389 37.944C44.1866 37.5127 44.1193 36.7926 44.0819 36.3501C44.037 35.7763 44.0183 35.0937 44.0183 33.9686C44.0183 33.0685 44.037 32.0971 44.0632 31.6996C44.0894 31.317 44.1455 30.6495 44.1866 30.2182C44.224 29.7869 44.3174 28.9655 44.3922 28.3992C44.4969 27.5741 44.5268 27.1879 44.5455 26.4678C44.5567 25.9727 44.5455 25.2639 44.5231 24.8926C44.5006 24.5213 44.4483 24.0563 44.4109 23.8612C44.3698 23.6662 44.2913 23.3549 44.2389 23.1674C44.1866 22.9799 44.0969 22.7361 44.0445 22.6236C43.9884 22.5111 43.8763 22.3423 43.7903 22.2523C43.708 22.1623 43.5734 22.0536 43.4912 22.0123C43.3865 21.956 43.2706 21.9335 43.0986 21.9298C42.9042 21.9298 42.8107 21.9523 42.6313 22.0386C42.4817 22.1136 42.306 22.2523 42.1041 22.4511C41.9396 22.6199 41.7153 22.8899 41.6106 23.0549C41.491 23.2387 41.3265 23.5762 41.1956 23.9175C41.076 24.225 40.8816 24.7576 40.7657 25.0989C40.646 25.4402 40.5039 25.9052 40.4441 26.1302C40.3843 26.3553 40.2759 26.8466 40.2048 27.2179C40.1338 27.5891 40.0142 28.238 39.9431 28.6618C39.8684 29.0856 39.6926 30.1807 39.5468 31.0995C39.401 32.0184 39.2664 32.836 39.244 32.9185C39.2216 33.001 39.1617 33.1472 39.1131 33.2448C39.0645 33.346 38.9673 33.4848 38.9038 33.5635C38.8365 33.6385 38.7206 33.7361 38.6495 33.7811C38.5785 33.8298 38.4177 33.8936 38.2944 33.9311C38.1411 33.9761 37.999 33.9911 37.8457 33.9761C37.7223 33.9686 37.5279 33.9236 37.4158 33.8823C37.2924 33.8373 37.1316 33.7323 37.0157 33.6235C36.8923 33.511 36.7839 33.361 36.7204 33.2185C36.6381 33.046 36.6119 32.9222 36.6007 32.6747C36.5895 32.4722 36.6082 32.2321 36.6493 32.0184C36.683 31.8309 36.7503 31.5158 36.8026 31.3133C36.8512 31.1145 36.8923 30.9045 36.8923 30.8445C36.8923 30.7882 36.8662 30.642 36.8363 30.5182C36.8026 30.3944 36.5072 29.7006 36.1745 28.9805C35.8418 28.2567 35.3557 27.1879 35.0865 26.599C34.8211 26.0102 34.3313 24.9151 33.9948 24.1613C33.6583 23.4074 33.0377 22.0161 32.6115 21.0672C32.1853 20.1183 31.359 18.2619 30.772 16.9418C30.1851 15.6216 29.4373 13.9414 29.1046 13.2101C28.7718 12.4788 28.4279 11.7437 28.3381 11.5787C28.2484 11.4137 28.0316 11.0574 27.8558 10.7911C27.6801 10.5248 27.4932 10.2548 27.4371 10.1985C27.3848 10.1385 27.295 10.0673 27.2389 10.0373C27.1791 10.0073 27.0894 9.98476 27.0333 9.98476C26.966 9.98851 26.8875 10.0298 26.8165 10.1085C26.7529 10.176 26.6669 10.3223 26.6221 10.4348C26.5809 10.5473 26.5248 10.7573 26.4987 10.9036C26.4575 11.1211 26.4613 11.3124 26.5136 12.0475C26.551 12.5313 26.6034 13.1651 26.6333 13.4539C26.6632 13.7427 26.7155 14.1477 26.7454 14.354C26.7791 14.5603 26.8725 15.0328 26.9548 15.4041C27.037 15.7754 27.1866 16.3829 27.2875 16.7542C27.3922 17.1255 27.5941 17.7931 27.7399 18.2356C27.8857 18.6782 28.1101 19.3383 28.2372 19.6983C28.368 20.0583 28.7195 21.0222 29.0223 21.836C29.3252 22.6499 29.6542 23.5612 29.7588 23.8612C29.8598 24.1613 30.0019 24.6226 30.0692 24.8926C30.1402 25.1626 30.2224 25.5564 30.2561 25.774C30.286 25.9915 30.3122 26.3628 30.3122 26.599C30.3122 26.8353 30.286 27.1504 30.2561 27.2929C30.2262 27.4354 30.1439 27.6754 30.0729 27.8179C30.0019 27.9604 29.8598 28.1705 29.7626 28.283C29.6654 28.3955 29.4822 28.553 29.3588 28.6318C29.2354 28.7105 29.0261 28.8155 28.8915 28.8605C28.6896 28.928 28.5699 28.943 28.1998 28.9393C27.7998 28.9393 27.71 28.9243 27.396 28.8193C27.2016 28.7555 26.966 28.6543 26.8725 28.5943C26.7791 28.5343 26.4688 28.2342 26.1771 27.9267C25.8893 27.6192 25.5229 27.2216 25.3658 27.0378C25.2088 26.8578 24.9807 26.5803 24.8611 26.419C24.7452 26.2615 24.5097 25.9127 24.3452 25.6427C24.1807 25.3727 23.8666 24.8514 23.6498 24.4801C23.4329 24.1088 22.9506 23.2574 22.573 22.5861C22.1991 21.9148 21.672 20.9922 21.4103 20.5309C21.1448 20.0733 20.4681 18.9182 19.9073 17.9619C19.3427 17.0093 18.666 15.8841 18.4043 15.4603C18.1426 15.0366 17.765 14.4477 17.5706 14.1477C17.3762 13.8477 17.107 13.4614 16.9687 13.2851C16.8341 13.1088 16.5387 12.7751 16.3106 12.5388C16.0863 12.3025 15.7573 11.9837 15.5816 11.83C15.4059 11.6762 15.189 11.5149 15.0956 11.4662C15.0021 11.4212 14.8712 11.3724 14.8077 11.3574C14.7404 11.3462 14.6394 11.3537 14.5833 11.3762C14.5235 11.3987 14.4375 11.4512 14.3927 11.4962C14.3441 11.5412 14.2842 11.6312 14.2581 11.6912C14.2319 11.7512 14.1983 11.8787 14.1833 11.9725C14.1721 12.0662 14.1833 12.4038 14.217 12.7226C14.2469 13.0413 14.2992 13.4539 14.3291 13.6414C14.3628 13.8289 14.4151 14.0877 14.445 14.2227C14.4749 14.3577 14.5422 14.6015 14.5946 14.7665C14.6469 14.9315 14.8189 15.3628 14.9722 15.7229C15.1292 16.0829 15.4358 16.7767 15.6564 17.2605C15.8807 17.7443 16.2994 18.6407 16.591 19.2483C16.8789 19.8558 17.3612 20.8272 17.6566 21.4047C17.9519 21.9823 18.5726 23.1562 19.0399 24.0113C19.5073 24.8664 20.1241 26.0477 20.4195 26.6365C20.7111 27.2254 21.0887 28.0504 21.2532 28.4742C21.4215 28.898 21.7318 29.7569 21.9412 30.3869C22.2814 31.4071 22.3225 31.5608 22.3263 31.8121C22.33 32.0596 22.315 32.1271 22.2104 32.3484C22.1169 32.5359 22.0421 32.6334 21.9113 32.7309C21.8103 32.8022 21.6495 32.8885 21.5449 32.926C21.4215 32.9672 21.257 32.9897 21.0588 32.986C20.8943 32.9822 20.6513 32.9522 20.5167 32.9185C20.3821 32.8847 20.1802 32.8247 20.0681 32.7797C19.9559 32.7385 19.7951 32.6709 19.7129 32.6297C19.6306 32.5884 19.4026 32.4422 19.2082 32.3072C19.0137 32.1721 18.6922 31.9359 18.4978 31.7783C18.3034 31.6208 18.0454 31.3996 17.9183 31.287C17.7949 31.1745 17.2977 30.7095 16.8154 30.2557C16.3331 29.8019 14.9348 28.4855 13.7122 27.3304C12.4897 26.1715 10.8072 24.5888 9.9735 23.805C9.13976 23.0249 8.29855 22.2523 8.10413 22.0873C7.90972 21.926 7.52089 21.641 7.24422 21.4535C6.96756 21.2697 6.57499 21.0334 6.37684 20.9322C6.06652 20.7784 5.9768 20.7484 5.79734 20.7484C5.6777 20.7484 5.52067 20.7709 5.44964 20.8009C5.3786 20.8309 5.27018 20.9022 5.21036 20.9622C5.15054 21.0184 5.06828 21.1422 5.02716 21.236C4.97482 21.3522 4.94865 21.4835 4.94865 21.6485C4.95238 21.7835 4.98603 22.0236 5.03464 22.1923C5.0795 22.3573 5.18419 22.6274 5.2627 22.7924C5.35617 22.9762 5.58423 23.3174 5.86837 23.6775C6.12261 24 6.77314 24.8176 7.319 25.4964C7.86485 26.1752 9.0762 27.6754 10.0109 28.8305C10.9493 29.9857 12.1158 31.4183 12.6018 32.0184C13.0916 32.6184 13.7234 33.4023 14.0076 33.7623C14.2917 34.1223 14.6992 34.6549 14.9161 34.9437C15.1329 35.2325 15.3834 35.5888 15.4694 35.7313C15.5592 35.8738 15.7274 36.1888 15.847 36.4251C15.9629 36.6614 16.1461 37.0664 16.2471 37.3252C16.348 37.584 16.4789 37.9365 16.535 38.1128C16.6247 38.3866 16.6359 38.4766 16.621 38.7316C16.6135 38.9041 16.5761 39.0841 16.5424 39.1516C16.5088 39.2191 16.4153 39.3392 16.3405 39.4142C16.262 39.4892 16.0975 39.5979 15.9742 39.6579C15.8508 39.7142 15.6227 39.778 15.4694 39.8042C15.3161 39.8267 15.0544 39.838 14.8899 39.8267C14.7254 39.8155 14.4824 39.778 14.3478 39.7442C14.2132 39.7104 13.9365 39.6017 13.7309 39.5004C13.5253 39.3954 13.1439 39.1554 12.8822 38.9679C12.6243 38.7766 11.9662 38.2815 11.4241 37.8653C10.8857 37.449 9.92863 36.7326 9.30052 36.2676C8.67242 35.8063 7.8985 35.24 7.58071 35.0149C7.26292 34.7862 6.77314 34.4486 6.49648 34.2611C6.21981 34.0773 5.8908 33.8711 5.76743 33.8111C5.64405 33.7473 5.40103 33.646 5.22531 33.586C5.04959 33.5223 4.79162 33.451 4.64581 33.421C4.50374 33.3948 4.18221 33.3685 3.93545 33.3685C3.49428 33.3685 3.48306 33.3723 3.22883 33.4998C3.08676 33.571 2.96338 33.6498 2.9559 33.6686C2.94469 33.6873 2.98955 33.8186 3.05311 33.9573C3.15779 34.1899 3.30361 34.3511 4.56356 35.6488C5.32626 36.4363 6.21607 37.3627 6.53387 37.7002C6.85166 38.0415 7.40873 38.6491 7.76765 39.0504C8.1303 39.4517 9.18089 40.6443 10.1081 41.6944C11.0316 42.7445 12.2093 44.0872 12.7215 44.676C13.2337 45.2648 14.0674 46.2099 14.5684 46.7762C15.0731 47.3425 15.7386 48.0851 16.0527 48.4264C16.363 48.7677 16.9275 49.349 17.3051 49.7203C17.6828 50.0916 18.2137 50.5941 18.4791 50.8304C18.7446 51.0704 19.167 51.4305 19.4138 51.633C19.6605 51.8355 20.0568 52.1468 20.2924 52.3268C20.5279 52.5031 20.8831 52.7618 21.0775 52.8969C21.2719 53.0319 21.5748 53.2307 21.7505 53.3394C21.9262 53.4519 22.2552 53.6469 22.4795 53.782C22.7039 53.9132 23.3282 54.2545 23.8629 54.5395C24.3975 54.8208 25.1789 55.2521 25.6014 55.4921C26.0239 55.7359 26.6295 56.1072 26.9473 56.3172C27.2651 56.531 27.7474 56.8798 28.0129 57.0936C28.2783 57.3073 28.7569 57.7349 29.0747 58.0462C29.3887 58.3537 29.8074 58.7962 30.0056 59.0213C30.2 59.2463 30.5028 59.6288 30.6823 59.8651C30.8618 60.1014 31.1384 60.4989 31.3029 60.7465C31.4637 60.994 31.6394 61.2903 31.6918 61.4028C31.7628 61.5603 31.7852 61.6691 31.7852 61.8716C31.7852 62.0628 31.7628 62.1754 31.7067 62.2841C31.6656 62.3666 31.5833 62.4904 31.5235 62.5617C31.4637 62.6292 31.3403 62.7304 31.2469 62.7867C31.1534 62.8392 30.9702 62.9217 30.8356 62.9667C30.701 63.0154 30.5253 63.053 30.443 63.053C30.3608 63.053 30.2 63.0117 30.0879 62.9667C29.9757 62.9217 29.8149 62.8317 29.7327 62.7679C29.6429 62.6967 29.4298 62.4191 29.1868 62.0553C28.97 61.7291 28.6185 61.2415 28.4017 60.9715C28.1886 60.7015 27.7511 60.2214 27.4334 59.8989C27.1156 59.5763 26.6407 59.1375 26.3828 58.9238C26.1248 58.71 25.721 58.395 25.4855 58.2299C25.2499 58.0612 24.8985 57.8249 24.7041 57.7011C24.5097 57.5774 23.9451 57.2436 23.4516 56.9585C22.9581 56.6735 22.2926 56.2835 21.9748 56.0847C21.657 55.8897 20.9841 55.4546 20.4793 55.1209C19.9746 54.7871 19.268 54.2958 18.9091 54.0332C18.5501 53.7707 18.0529 53.3957 17.8061 53.1969C17.5594 52.9981 17.1556 52.6568 16.9088 52.4431C16.6621 52.2255 15.9966 51.5842 15.432 51.0179C14.8638 50.4478 14.0898 49.6378 13.7122 49.214C13.3309 48.7902 12.3663 47.6838 11.5625 46.7575C10.7624 45.8274 9.64449 44.5372 9.0762 43.8884C8.51165 43.2396 7.73026 42.3545 7.34143 41.9194C6.9526 41.4881 6.31328 40.7868 5.92445 40.363C5.53189 39.9392 4.42149 38.7991 3.44942 37.8315C2.08852 36.4701 1.61744 35.975 1.3819 35.6563C1.21366 35.4312 0.985594 35.0675 0.873432 34.8499C0.76127 34.6324 0.64537 34.3624 0.611721 34.2499C0.578073 34.1374 0.536947 33.9161 0.518253 33.7623C0.492082 33.5785 0.495821 33.3835 0.518253 33.1997C0.540686 33.046 0.600505 32.8172 0.649109 32.6934C0.697712 32.5697 0.82109 32.3597 0.922036 32.2246C1.01924 32.0896 1.20992 31.8984 1.34077 31.7971C1.47163 31.6958 1.73334 31.5421 1.91654 31.4521C2.10347 31.3621 2.42127 31.2458 2.6269 31.1895C2.93347 31.107 3.10919 31.0883 3.58027 31.0733C4.0177 31.0583 4.24203 31.0695 4.49626 31.1145C4.6832 31.1483 5.02716 31.2383 5.2627 31.3133C5.49824 31.3883 5.92071 31.5646 6.19738 31.7033C6.47405 31.8421 6.91148 32.0934 7.16945 32.2659C7.42742 32.4384 7.79008 32.6972 7.97328 32.8435C8.16021 32.986 8.84814 33.5523 9.50616 34.0998C10.1642 34.6474 11.3568 35.6375 12.1607 36.2938C12.9607 36.9539 13.7197 37.5615 13.8468 37.644C13.9702 37.7265 14.1796 37.8428 14.5347 38.019L14.703 37.854L14.4226 37.3927C14.2693 37.1377 14.0711 36.8376 13.9777 36.7251C13.8842 36.6126 13.2785 35.9038 12.6317 35.15C11.9887 34.3961 11.0689 33.3348 10.5941 32.7872C10.1193 32.2396 8.95656 30.8895 8.0144 29.7869C7.07224 28.6843 6.07774 27.5029 5.80481 27.1616C5.53189 26.8203 5.15054 26.3253 4.95612 26.0552C4.76171 25.7852 4.48504 25.3914 4.33923 25.1739C4.19716 24.9564 3.94667 24.5626 3.7859 24.2925C3.62514 24.0225 3.36716 23.5612 3.21761 23.2612C3.06433 22.9612 2.90356 22.5899 2.85496 22.4361C2.80635 22.2823 2.74654 21.9935 2.7241 21.7985C2.69419 21.5435 2.69045 21.3635 2.72036 21.161C2.7428 21.0072 2.78392 20.7859 2.81757 20.6734C2.85122 20.5609 2.93347 20.3584 3.00451 20.2234C3.07554 20.0883 3.22135 19.8708 3.32604 19.7396C3.43446 19.6083 3.64009 19.4133 3.7859 19.3008C3.93171 19.192 4.20838 19.027 4.40279 18.9332C4.59721 18.8395 4.90004 18.7269 5.07576 18.6782C5.34121 18.6069 5.48328 18.5919 5.95436 18.5919C6.42918 18.5919 6.56378 18.6069 6.81427 18.6782C6.97877 18.7269 7.24796 18.832 7.41247 18.9107C7.57697 18.9895 7.93215 19.1957 8.1976 19.3683C8.46305 19.5408 8.8444 19.7996 9.03881 19.9458C9.23323 20.0921 9.56224 20.3696 9.76787 20.5609C9.9735 20.7522 10.4034 21.1647 10.7212 21.476C11.039 21.7873 11.8316 22.5636 12.4784 23.2049C13.1252 23.8462 14.8675 25.5677 16.348 27.0341C17.8286 28.4967 19.1521 29.8056 19.5446 30.1807L19.5671 30.0682C19.5858 29.9744 19.4736 29.7194 18.8866 28.5117C18.5015 27.7167 18.0155 26.7228 17.8024 26.299C17.5893 25.8752 17.2491 25.2189 17.0472 24.8364C16.8415 24.4538 16.3181 23.5275 15.8807 22.7736C15.4433 22.0198 14.8787 21.0334 14.6282 20.5796C14.3777 20.1258 14.0188 19.4583 13.8319 19.0982C13.6487 18.7382 13.3608 18.1456 13.1963 17.7856C13.0318 17.4256 12.7925 16.8667 12.6616 16.548C12.5345 16.2292 12.3065 15.5879 12.1532 15.1228C11.9999 14.6578 11.8167 14.0577 11.7494 13.7914C11.6821 13.5251 11.6036 13.1614 11.5811 12.9851C11.5512 12.7863 11.54 12.4563 11.555 12.1037C11.5699 11.6537 11.5924 11.4699 11.6709 11.1849C11.727 10.9899 11.8466 10.6673 11.9401 10.4723C12.0335 10.2773 12.1831 10.0148 12.2691 9.891C12.3588 9.76724 12.557 9.54971 12.7102 9.40345C12.8785 9.24218 13.1028 9.08091 13.286 8.9834C13.4468 8.90089 13.7085 8.78838 13.8618 8.73963C14.1048 8.66462 14.2132 8.65337 14.703 8.65712C15.204 8.65712 15.3012 8.66837 15.6003 8.76213C15.7872 8.81838 16.0863 8.93465 16.2733 9.02466C16.4602 9.11092 16.7593 9.27968 16.9462 9.3997C17.1332 9.52346 17.4173 9.72223 17.5818 9.84974C17.7463 9.97351 18.0566 10.2473 18.2697 10.4536C18.4828 10.6598 18.8156 11.0161 19.0137 11.2411C19.2082 11.4662 19.5297 11.875 19.7316 12.1412C19.9297 12.4075 20.2288 12.8313 20.3933 13.0788C20.5578 13.3264 20.8345 13.7652 21.0102 14.0539C21.1859 14.3427 21.4963 14.8828 21.7019 15.2541C21.9075 15.6254 22.401 16.5517 22.7973 17.3168C23.1936 18.0819 23.7956 19.237 24.1358 19.8858C24.4723 20.5346 25.1041 21.7348 25.5378 22.5486C25.9715 23.3624 26.3828 24.1238 26.4538 24.2363C26.5248 24.3488 26.6931 24.5926 26.8314 24.7726C27.0445 25.0614 27.1081 25.1176 27.3137 25.2151C27.4408 25.2751 27.553 25.3239 27.5642 25.3239C27.5754 25.3239 27.6091 25.2264 27.6427 25.1064C27.6838 24.9601 27.6951 24.8214 27.6801 24.6676C27.6689 24.5438 27.6166 24.2813 27.5679 24.0863C27.5193 23.8913 27.0333 22.3536 26.4875 20.6734C25.9416 18.9932 25.3845 17.2605 25.2462 16.8292C25.1116 16.3979 24.9321 15.7979 24.8499 15.4979C24.7676 15.1978 24.6555 14.7178 24.5957 14.429C24.5358 14.1402 24.4573 13.6827 24.4199 13.4164C24.3676 13.0638 24.3489 12.6963 24.3526 12.085C24.3526 11.4587 24.3676 11.1324 24.4199 10.8098C24.4573 10.5736 24.5284 10.236 24.577 10.0598C24.6256 9.8835 24.7415 9.59097 24.8312 9.40345C24.9247 9.21593 25.0892 8.95715 25.1976 8.82213C25.3098 8.68712 25.5677 8.45084 25.7696 8.29333C25.9753 8.13956 26.2706 7.94829 26.4239 7.87328C26.5772 7.79452 26.7903 7.70826 26.8912 7.67826C27.0034 7.64451 27.2053 7.62951 27.396 7.63326ZM30.7982 3.32779C30.8692 3.3353 31.0786 3.39905 31.2656 3.47031C31.4525 3.54157 31.7441 3.67283 31.9198 3.75909C32.0955 3.84535 32.3573 3.99537 32.4993 4.08538C32.6414 4.17914 32.9181 4.38541 33.1125 4.54293C33.3069 4.70044 33.5985 4.97047 33.763 5.14674C33.9275 5.32301 34.1593 5.60054 34.2827 5.76556C34.4061 5.93057 34.6117 6.23436 34.7426 6.44063C34.8734 6.65065 35.0043 6.81567 35.0342 6.81567C35.0641 6.81567 35.1015 6.82317 35.1127 6.83442C35.1239 6.84567 35.2697 7.30697 35.4342 7.86578C35.6025 8.42084 35.8156 9.14842 35.9053 9.47845C35.995 9.80849 36.0698 10.1235 36.0698 10.1798C36.0698 10.2398 36.0436 10.3485 36.01 10.4236C35.9801 10.5023 35.909 10.6148 35.853 10.6711C35.7931 10.7311 35.666 10.8023 35.5464 10.8361C35.423 10.8699 35.2847 10.8849 35.2024 10.8699C35.1239 10.8586 35.0155 10.8173 34.9632 10.7798C34.9071 10.7461 34.8323 10.6561 34.7986 10.5848C34.7613 10.5136 34.6977 10.2585 34.6528 10.0223C34.6117 9.78599 34.522 9.40345 34.4584 9.17842C34.3949 8.9534 34.264 8.57836 34.1743 8.35333C34.0846 8.12831 33.9238 7.77952 33.8191 7.5845C33.7144 7.38948 33.5163 7.05944 33.3779 6.85317C33.2396 6.6469 33.0377 6.36562 32.9255 6.23061C32.8134 6.09559 32.604 5.85557 32.4619 5.6943C32.3199 5.53303 31.9049 5.13924 31.546 4.8167C31.187 4.49042 30.787 4.12663 30.6561 4.00287C30.4804 3.83785 30.4094 3.73659 30.3832 3.62783C30.3608 3.54532 30.3421 3.45906 30.3383 3.44031C30.3346 3.42155 30.4056 3.38405 30.4991 3.3578C30.5926 3.33155 30.7272 3.32029 30.7982 3.32779ZM66.8582 19.2445L68.1481 19.2633C69.0491 19.2745 69.5501 19.297 69.8118 19.3345C70.0175 19.3683 70.339 19.4283 70.5222 19.4695C70.7054 19.507 71.0269 19.597 71.2326 19.6608C71.4382 19.7283 71.7747 19.8633 71.9803 19.9608C72.1859 20.0621 72.4962 20.2384 72.672 20.3546C72.8477 20.4746 73.1057 20.6659 73.2515 20.7822C73.3935 20.8984 73.7076 21.1872 73.9431 21.4235C74.1787 21.6598 74.5226 22.0423 74.7021 22.2673C74.8853 22.4961 75.1545 22.8674 75.3078 23.0924C75.4573 23.3174 75.6742 23.6812 75.7863 23.8988C75.9022 24.1163 76.0555 24.4426 76.134 24.6301C76.2088 24.8176 76.321 25.1626 76.3808 25.3989C76.4518 25.6877 76.4967 25.9727 76.5116 26.2615C76.5266 26.5915 76.5191 26.7678 76.4705 27.0116C76.4331 27.1879 76.3583 27.4391 76.306 27.5741C76.2499 27.7092 76.1265 27.9267 76.0331 28.0617C75.9396 28.1967 75.7415 28.4142 75.5994 28.5493C75.4573 28.6843 75.1956 28.8868 75.0236 29.003C74.8516 29.1156 74.5825 29.2806 74.4292 29.3631C74.2759 29.4493 73.988 29.5881 73.7936 29.6744C73.5992 29.7606 73.2776 29.8919 73.0832 29.9632C72.8888 30.0344 72.5112 30.1619 72.242 30.2444C71.9728 30.3232 71.513 30.4395 71.2139 30.4995C70.9148 30.5632 70.1932 30.672 69.6062 30.747C69.0192 30.8182 68.5369 30.882 68.5332 30.8858C68.5294 30.8895 68.5668 31.5421 68.6154 32.3372C68.6678 33.1322 68.7089 33.9236 68.7089 34.0998C68.7089 34.2761 68.6827 34.5199 68.6528 34.6437C68.6192 34.7674 68.5556 34.9287 68.507 34.9999C68.4584 35.0712 68.335 35.2212 68.2266 35.3262C68.1219 35.435 67.9537 35.5663 67.849 35.6188C67.7481 35.6713 67.5985 35.7238 67.5237 35.735C67.4377 35.75 67.2957 35.735 67.1686 35.6975C67.0041 35.6525 66.8994 35.5888 66.7386 35.4387C66.5965 35.3075 66.4694 35.1387 66.3759 34.9587C66.2713 34.7562 66.2152 34.5949 66.1815 34.3624C66.1516 34.1861 66.1068 33.7136 66.0731 33.3123C66.0432 32.911 66.0021 32.2509 65.9796 31.8496C65.9609 31.4483 65.9198 30.4095 65.8862 29.5431C65.8563 28.6768 65.8114 27.2741 65.789 26.4303C65.7665 25.5864 65.7478 24.015 65.7478 22.9424C65.7478 21.7273 65.7628 20.8347 65.789 20.5796C65.8151 20.3321 65.86 20.1071 65.9049 20.0171C65.9423 19.9346 66.0469 19.7921 66.1329 19.6983C66.2264 19.597 66.4021 19.4733 66.5741 19.387L66.8582 19.2445ZM68.3687 22.8449C68.3724 23.4562 68.3911 24.6638 68.4098 25.5302C68.4322 26.3965 68.4659 27.3004 68.4883 27.5366C68.5108 27.7729 68.5444 28.0054 68.5631 28.0504C68.5818 28.0992 68.6341 28.148 68.679 28.163C68.7276 28.1742 68.8996 28.1855 69.0641 28.1855C69.2286 28.1855 69.5389 28.1555 69.7558 28.118C69.9726 28.0842 70.3502 28.0054 70.597 27.9417C70.8437 27.8817 71.2886 27.7542 71.5877 27.6604C71.8868 27.5666 72.2906 27.4316 72.485 27.3604C72.6794 27.2854 72.9898 27.1504 73.1767 27.0603C73.3599 26.9666 73.5842 26.8353 73.6702 26.7641C73.7599 26.6928 73.8571 26.584 73.887 26.524C73.917 26.4603 73.9431 26.3478 73.9431 26.269C73.9431 26.194 73.9207 26.044 73.887 25.9427C73.8571 25.8377 73.7637 25.6202 73.6777 25.4552C73.5954 25.2902 73.4047 24.9676 73.2552 24.7426C73.1057 24.5138 72.8664 24.1763 72.7206 23.9925C72.5748 23.805 72.3429 23.5312 72.2009 23.3774C72.0588 23.2237 71.8083 22.9912 71.6438 22.8599C71.4793 22.7286 71.1839 22.5374 70.9895 22.4398C70.7951 22.3386 70.4811 22.2036 70.2979 22.1361C70.1109 22.0723 69.8006 21.9785 69.6062 21.9298C69.4118 21.881 69.0977 21.8135 68.9145 21.7798C68.7276 21.746 68.5407 21.7123 68.4995 21.7048C68.4547 21.6935 68.4061 21.6973 68.3911 21.7123C68.3724 21.7235 68.3612 22.2336 68.3687 22.8449ZM123.089 19.7096C123.541 19.7171 123.593 19.7246 123.814 19.8296C123.971 19.9008 124.113 20.0058 124.225 20.1296C124.341 20.2571 124.42 20.3884 124.468 20.5421C124.521 20.7109 124.536 20.8347 124.521 21.0297C124.509 21.191 124.465 21.371 124.408 21.4985C124.36 21.611 124.251 21.776 124.169 21.866C124.087 21.9598 123.926 22.0761 123.799 22.1361C123.676 22.1961 123.406 22.2861 123.201 22.3348C122.995 22.3873 122.659 22.4548 122.453 22.4886C122.247 22.5224 121.118 22.6761 119.948 22.8299C118.774 22.9874 117.548 23.1524 117.219 23.2049C116.89 23.2537 116.535 23.3137 116.434 23.3324C116.329 23.3549 116.202 23.4074 116.142 23.4487C116.086 23.49 116.026 23.5762 116.008 23.6437C115.989 23.7112 115.963 23.9363 115.951 24.1425C115.94 24.3488 115.873 25.0501 115.798 25.6989C115.727 26.3478 115.671 26.8841 115.679 26.8916C115.682 26.8991 116.703 26.8091 117.948 26.6891C119.193 26.5728 120.419 26.4753 120.677 26.4715C121.118 26.4678 121.156 26.4715 121.35 26.5728C121.462 26.629 121.672 26.7753 121.818 26.8953C121.963 27.0153 122.15 27.2179 122.24 27.3529C122.363 27.5366 122.401 27.6267 122.397 27.7429C122.397 27.8254 122.363 27.9604 122.326 28.0429C122.285 28.1255 122.173 28.283 122.072 28.3955C121.975 28.508 121.799 28.658 121.687 28.7293C121.575 28.8005 121.38 28.898 121.257 28.9468C121.133 28.9918 120.857 29.0556 120.64 29.0893C120.423 29.1231 119.87 29.1756 119.406 29.2093C118.942 29.2393 117.933 29.3031 115.761 29.4306L115.727 29.6181C115.705 29.7344 115.708 30.0644 115.735 30.4995C115.757 30.882 115.813 31.3771 115.854 31.6058C115.895 31.8309 115.963 32.1384 116.004 32.2884C116.045 32.4384 116.127 32.6634 116.191 32.7872C116.251 32.911 116.374 33.091 116.46 33.1847C116.55 33.2785 116.684 33.391 116.759 33.4285C116.838 33.466 117.013 33.5148 117.152 33.5373C117.294 33.556 117.608 33.5898 117.854 33.6123C118.101 33.631 118.748 33.6723 119.294 33.7023C119.84 33.7361 120.67 33.7773 121.145 33.7998C121.616 33.8223 122.61 33.8636 123.35 33.8936C124.091 33.9236 124.794 33.9498 125.126 33.9498L125.377 34.4636C125.571 34.8687 125.631 35.0262 125.642 35.1875C125.653 35.3712 125.639 35.4162 125.511 35.63C125.433 35.7613 125.302 35.9413 125.22 36.0351C125.096 36.1701 125.029 36.2113 124.846 36.2563C124.723 36.2863 124.446 36.3276 124.229 36.3501C124.012 36.3688 122.947 36.3876 121.836 36.3876C120.737 36.3913 119.533 36.3726 119.163 36.3501C118.793 36.3276 118.247 36.2826 117.948 36.2526C117.649 36.2226 117.211 36.1626 116.976 36.1213C116.74 36.0801 116.411 36.0126 116.247 35.9713C116.082 35.93 115.839 35.8513 115.705 35.7988C115.57 35.7463 115.327 35.6225 115.163 35.5287C114.957 35.4087 114.748 35.24 114.49 34.9812C114.22 34.7112 114.06 34.5086 113.918 34.2686C113.802 34.0661 113.675 33.7848 113.611 33.5748C113.551 33.3798 113.45 32.9747 113.39 32.6747C113.331 32.3747 113.23 31.7858 113.166 31.3621C113.106 30.9383 113.009 30.2294 112.957 29.7869C112.901 29.3331 112.848 28.6693 112.837 28.268C112.818 27.6154 112.822 27.5404 112.893 27.3679C112.934 27.2629 112.994 27.0453 113.028 26.8803C113.061 26.7153 113.11 26.3703 113.14 26.1115C113.174 25.8527 113.248 25.0276 113.312 24.2738C113.387 23.4037 113.454 22.7961 113.503 22.6049C113.54 22.4398 113.63 22.1848 113.697 22.0423C113.764 21.896 113.873 21.7048 113.936 21.611C113.996 21.5172 114.105 21.386 114.176 21.3147C114.247 21.2435 114.4 21.1385 114.516 21.0822C114.635 21.0222 114.864 20.9284 115.021 20.8797C115.181 20.8272 115.529 20.7409 115.798 20.6922C116.064 20.6397 117.555 20.4371 119.107 20.2384C120.659 20.0396 121.937 19.8746 121.948 19.8671C121.96 19.8558 122.109 19.8183 122.285 19.7771C122.532 19.7171 122.711 19.7021 123.089 19.7096ZM82.0562 20.1183C82.2506 20.1146 82.5871 20.1371 82.8039 20.1634C83.0208 20.1934 83.3647 20.2609 83.5704 20.3134C83.776 20.3659 84.0863 20.4559 84.262 20.5159C84.4377 20.5759 84.7256 20.6847 84.9051 20.7597C85.0883 20.8347 85.4397 20.9997 85.6902 21.1272C85.9444 21.2547 86.2847 21.4347 86.4492 21.5285C86.6137 21.6223 86.8978 21.7985 87.0848 21.9223C87.268 22.0461 87.5633 22.2598 87.739 22.4023C87.9147 22.5411 88.169 22.7699 88.3036 22.9124C88.4419 23.0512 88.6176 23.2499 88.6962 23.3549C88.7784 23.46 88.913 23.6775 88.999 23.8425C89.085 24.0075 89.1822 24.2513 89.2196 24.3863C89.2607 24.5438 89.2831 24.7651 89.2831 25.0051C89.2831 25.2339 89.257 25.4739 89.2196 25.6239C89.1822 25.759 89.1224 25.9615 89.0812 26.074C89.0364 26.1865 88.9392 26.4078 88.8569 26.5615C88.7784 26.7153 88.6064 26.9853 88.4718 27.1616C88.341 27.3379 88.1017 27.6042 87.9409 27.7579C87.7764 27.9079 87.4698 28.1517 87.253 28.2942C87.0361 28.4405 86.6585 28.6543 86.4118 28.7743C86.165 28.8905 85.7949 29.0556 85.5893 29.1381C85.3836 29.2206 84.9313 29.3968 84.5835 29.5281C84.2358 29.6594 83.9293 29.7831 83.9031 29.8056C83.8695 29.8319 84.0601 30.0194 84.6097 30.4995C85.021 30.8595 85.7239 31.4821 86.165 31.8871C86.6099 32.2884 87.3427 32.986 87.7989 33.4435C88.255 33.8973 88.7298 34.4036 88.8606 34.5686C88.9915 34.7337 89.1635 35.0037 89.242 35.1687C89.3242 35.3337 89.399 35.5438 89.4102 35.6375C89.4289 35.78 89.4102 35.8475 89.3056 36.0651C89.2345 36.2113 89.0925 36.4176 88.9915 36.5301C88.8569 36.6726 88.7485 36.7514 88.5989 36.8039C88.4307 36.8676 88.326 36.8789 88.0194 36.8676C87.6867 36.8564 87.6231 36.8414 87.4212 36.7326C87.2605 36.6464 87.0848 36.4964 86.8044 36.1926C86.5875 35.9638 86.008 35.3937 85.5145 34.9287C85.021 34.4599 84.3144 33.8036 83.9442 33.4623C83.5741 33.121 82.9684 32.5697 82.5983 32.2396C82.2281 31.9134 81.8057 31.5458 81.6636 31.4296C81.5178 31.3095 81.3907 31.212 81.372 31.212C81.357 31.212 81.3346 31.2758 81.3196 31.3508C81.3047 31.4296 81.2935 32.4309 81.2897 35.6563L81.2037 35.8138C81.1589 35.9038 81.0654 36.0276 80.9944 36.0951C80.9233 36.1626 80.7775 36.2713 80.6654 36.3388C80.5569 36.4063 80.3812 36.4776 80.2803 36.4964C80.1644 36.5189 80.0223 36.5189 79.9064 36.4964C79.8017 36.4776 79.6335 36.4213 79.5325 36.3726C79.4278 36.3238 79.2746 36.2001 79.1848 36.0988C79.0689 35.9713 79.0016 35.8475 78.953 35.675C78.9119 35.54 78.8633 35.2962 78.8409 35.1312C78.8222 34.9662 78.7885 34.6437 78.7661 34.4186C78.7474 34.1899 78.6951 33.4923 78.6539 32.8622C78.6091 32.2321 78.553 31.5233 78.5193 31.287C78.4894 31.0508 78.4483 30.762 78.4259 30.6495C78.4034 30.537 78.3586 30.3494 78.3287 30.2369C78.295 30.1244 78.1941 29.8769 78.1043 29.6931C77.9735 29.4193 77.9436 29.3143 77.9436 29.1493C77.9436 29.0368 77.9697 28.868 78.0071 28.7743C78.0669 28.6243 78.0744 28.4517 78.0707 27.2929C78.0707 26.5015 78.0445 25.4777 78.0034 24.7238C77.966 24.0338 77.9324 23.0437 77.9286 22.5299C77.9249 21.701 77.9324 21.566 77.9959 21.386C78.0333 21.2735 78.1043 21.1122 78.1529 21.0297C78.1978 20.9472 78.3174 20.8047 78.4184 20.7109C78.5156 20.6209 78.6726 20.5121 78.7661 20.4746C78.8596 20.4334 79.0166 20.3921 79.1213 20.3809C79.226 20.3734 79.4465 20.3921 79.626 20.4296C79.8466 20.4746 80.0223 20.4859 80.1943 20.4709C80.3363 20.4596 80.5532 20.4071 80.6803 20.3584C80.8112 20.3096 81.043 20.2421 81.1963 20.2084C81.3495 20.1784 81.5253 20.1446 81.5888 20.1371C81.6486 20.1296 81.8618 20.1183 82.0562 20.1183ZM80.9345 23.0324C80.7813 23.0962 80.6317 23.1599 80.6055 23.1749C80.5644 23.2012 80.5607 23.3437 80.5981 23.9925C80.6205 24.4238 80.6654 25.1101 80.6915 25.5114C80.7214 25.9127 80.7663 26.404 80.785 26.599C80.8074 26.7941 80.8486 27.0753 80.8785 27.2254L80.9345 27.4991C81.1514 27.5366 81.3645 27.5254 81.5514 27.5029C81.7346 27.4766 82.1571 27.3979 82.4861 27.3266C82.8151 27.2516 83.3012 27.1241 83.5704 27.0453C83.8358 26.9628 84.2171 26.8353 84.4116 26.7603C84.606 26.6853 84.9088 26.554 85.0845 26.464C85.2603 26.3778 85.5631 26.2015 85.7575 26.0702C85.9519 25.9427 86.1987 25.7514 86.3034 25.6464C86.4342 25.5152 86.509 25.4027 86.5426 25.2864C86.58 25.1589 86.5838 25.0839 86.5501 24.9864C86.5277 24.9151 86.4641 24.7951 86.4081 24.7238C86.352 24.6526 86.2211 24.5213 86.1164 24.4351C86.0117 24.3488 85.7575 24.1725 85.5519 24.045C85.3462 23.9138 84.8415 23.6362 84.4303 23.4262C84.0115 23.2162 83.4918 22.9837 83.2526 22.9049C82.8637 22.7736 82.7815 22.7586 82.3553 22.7474C81.9552 22.7361 81.8393 22.7474 81.5514 22.8261C81.3645 22.8749 81.0878 22.9649 80.9345 23.0324ZM97.2728 20.1371C97.3438 20.1483 97.4784 20.1784 97.5719 20.2084C97.6654 20.2346 97.8074 20.3134 97.8897 20.3846C97.9719 20.4521 98.1177 20.6246 98.2149 20.7709C98.3084 20.9134 98.5066 21.2697 98.6524 21.5623C98.7982 21.8585 98.9178 22.1098 98.9178 22.1248C98.9216 22.1398 99.0898 22.4736 99.2992 22.8674C99.5048 23.2574 99.8936 23.9775 100.163 24.4613C100.432 24.9451 100.884 25.7477 101.172 26.2428C101.46 26.7378 102.002 27.6417 102.376 28.2492C102.75 28.8568 103.221 29.6181 103.423 29.9369C103.625 30.2557 103.969 30.7882 104.193 31.1183C104.414 31.4483 104.653 31.7896 104.728 31.8759C104.803 31.9659 104.874 32.0371 104.889 32.0371C104.907 32.0371 105.034 31.7483 105.176 31.3921C105.315 31.0358 105.689 30.0419 106.003 29.1868C106.317 28.3317 106.728 27.2179 106.919 26.7116C107.109 26.2052 107.408 25.4627 107.58 25.0614C107.756 24.6601 108.108 23.8237 108.366 23.2049C108.624 22.5861 108.885 21.9785 108.949 21.8548C109.009 21.731 109.147 21.5435 109.252 21.4385C109.356 21.3335 109.551 21.1947 109.685 21.1272C109.854 21.0447 110.003 20.9997 110.171 20.9847C110.34 20.9697 110.478 20.9809 110.62 21.0222C110.732 21.0559 110.9 21.1385 110.99 21.206C111.08 21.2735 111.192 21.3972 111.241 21.4797C111.289 21.5623 111.345 21.7123 111.368 21.8173C111.398 21.9523 111.398 22.0686 111.368 22.2298C111.345 22.3536 111.274 22.6311 111.211 22.8486C111.151 23.0662 110.99 23.5462 110.856 23.9175C110.721 24.2888 110.265 25.4702 109.835 26.5428C109.409 27.6154 108.896 28.9318 108.695 29.4681C108.493 30.0044 108.052 31.2795 107.715 32.2997C107.375 33.3198 106.997 34.4261 106.878 34.7562C106.754 35.0862 106.564 35.54 106.455 35.7688C106.321 36.0463 106.19 36.2526 106.055 36.4026C105.943 36.5226 105.786 36.6576 105.704 36.7026C105.58 36.7664 105.491 36.7814 105.199 36.7814C104.904 36.7814 104.818 36.7664 104.683 36.6951C104.597 36.6501 104.436 36.5226 104.328 36.4101C104.223 36.3013 104.047 36.0876 103.943 35.9338C103.838 35.78 103.569 35.3337 103.348 34.9437C103.124 34.5499 102.664 33.7661 102.32 33.1997C101.976 32.6334 101.299 31.5271 100.817 30.7432C100.335 29.9594 99.7104 28.9393 99.4338 28.4742C99.1571 28.0092 98.7458 27.3079 98.5178 26.9178C98.2897 26.524 97.9233 25.8752 97.7027 25.4739C97.4822 25.0726 97.1008 24.3451 96.8578 23.8612C96.6148 23.3774 96.3344 22.7849 96.2334 22.5486C96.1325 22.3123 96.0128 21.9973 95.9642 21.8548C95.9119 21.6973 95.8745 21.5097 95.8782 21.386C95.8782 21.2472 95.9119 21.1085 95.9792 20.9622C96.0315 20.8459 96.1549 20.6622 96.2521 20.5571C96.3531 20.4521 96.4989 20.3246 96.5811 20.2759C96.6634 20.2271 96.8241 20.1746 96.9363 20.1559C97.0485 20.1371 97.2018 20.1296 97.2728 20.1371ZM92.0012 20.3884C92.2068 20.3959 92.4274 20.4296 92.5246 20.4634C92.6181 20.4971 92.7564 20.5721 92.8387 20.6284C92.9172 20.6847 93.0106 20.7784 93.048 20.8422C93.0854 20.9022 93.1602 21.0822 93.2125 21.236C93.2649 21.3897 93.3583 21.7685 93.4182 22.0798C93.4817 22.3873 93.564 22.8599 93.6051 23.1299C93.6462 23.3962 93.7135 23.9138 93.7547 24.2738C93.7995 24.6338 93.8556 25.2414 93.8892 25.6239C93.9192 26.0065 93.9603 26.5953 93.9827 26.9366C94.0014 27.2779 94.035 27.9417 94.0575 28.418C94.0762 28.8905 94.1098 29.8881 94.1323 30.6307C94.1547 31.3733 94.1883 32.3784 94.207 32.8622C94.2295 33.346 94.2631 34.0398 94.2818 34.3999C94.3042 34.7599 94.3491 35.3262 94.379 35.6563C94.4127 36.0013 94.4314 36.3988 94.4201 36.5939C94.4089 36.7776 94.3715 37.0139 94.3379 37.1189C94.3042 37.2202 94.2332 37.3589 94.1846 37.4265C94.1323 37.4977 93.9977 37.5952 93.8593 37.6627C93.7247 37.7265 93.5116 37.7902 93.3471 37.8127C93.1677 37.839 92.9882 37.839 92.8424 37.8165C92.719 37.7977 92.5657 37.7565 92.5059 37.7265C92.4424 37.6965 92.3489 37.6215 92.2965 37.5615C92.2405 37.5052 92.1732 37.4039 92.1395 37.3439C92.1096 37.2802 92.0498 37.0889 92.0049 36.9126C91.9638 36.7364 91.904 36.4514 91.8741 36.2751C91.8442 36.0988 91.7843 35.6525 91.7432 35.2812C91.6983 34.9099 91.6423 34.2761 91.6124 33.8748C91.5787 33.4735 91.5376 32.7872 91.5151 32.3559C91.4927 31.9209 91.4591 30.5032 91.4404 29.2056C91.4217 27.8404 91.3806 26.509 91.3469 26.0552C91.317 25.6202 91.2647 25.0314 91.2347 24.7426C91.2011 24.4538 91.1263 23.9063 91.0665 23.5237C91.0067 23.1412 90.9319 22.6011 90.902 22.3236C90.8684 22.0461 90.8422 21.6485 90.8422 21.4422C90.8422 21.236 90.8609 20.9997 90.8833 20.9172C90.9057 20.8347 90.9618 20.7259 91.0029 20.6772C91.0478 20.6284 91.1488 20.5571 91.2235 20.5196C91.302 20.4784 91.4292 20.4334 91.5039 20.4109C91.5824 20.3921 91.8068 20.3809 92.0012 20.3884ZM136.361 20.4634C136.503 20.4746 136.724 20.5196 136.847 20.5609C136.971 20.6059 137.116 20.6734 137.172 20.7147C137.232 20.7522 137.322 20.8834 137.378 20.9997C137.464 21.1797 137.483 21.281 137.498 21.5923C137.505 21.8323 137.494 22.0198 137.464 22.1173C137.438 22.1998 137.378 22.3273 137.33 22.3986C137.281 22.4698 137.135 22.6011 137.008 22.6874C136.877 22.7736 136.604 22.9199 136.399 23.0174C136.193 23.1112 135.737 23.2987 135.389 23.43C135.038 23.5612 134.619 23.7037 134.454 23.745C134.29 23.79 134.11 23.8237 134.054 23.8237C133.998 23.8237 133.927 23.85 133.897 23.88C133.864 23.91 133.838 23.9475 133.838 23.9625C133.838 23.9775 133.853 24.0525 133.875 24.1238C133.894 24.195 133.927 24.4051 133.95 24.5926C133.968 24.7763 134.002 25.2076 134.024 25.5489C134.043 25.8902 134.077 26.5653 134.099 27.0491C134.118 27.5329 134.159 28.8568 134.189 29.9932C134.219 31.1258 134.256 32.5697 134.268 33.1997C134.282 33.8748 134.275 34.5499 134.253 34.8499C134.23 35.1387 134.182 35.465 134.137 35.6075C134.092 35.765 134.017 35.915 133.938 35.9976C133.875 36.0726 133.744 36.1738 133.651 36.2188C133.557 36.2676 133.374 36.3238 133.239 36.3501C133.101 36.3763 132.899 36.3876 132.772 36.3763C132.634 36.3613 132.469 36.3126 132.342 36.2488C132.196 36.1738 132.11 36.0951 132.05 35.9901C132.006 35.9113 131.935 35.735 131.89 35.6C131.849 35.465 131.781 35.135 131.744 34.8687C131.703 34.5987 131.654 34.1449 131.632 33.8561C131.613 33.5673 131.579 32.9935 131.557 32.5809C131.538 32.1684 131.493 31.1708 131.463 30.3682C131.434 29.5619 131.374 27.7579 131.333 26.3553C131.288 24.9526 131.247 23.7862 131.239 23.7675C131.235 23.745 130.835 23.7 130.319 23.6625C129.818 23.625 129.198 23.5687 128.94 23.5387C128.682 23.5087 128.372 23.46 128.248 23.43C128.125 23.4037 127.923 23.3399 127.799 23.2949C127.676 23.2462 127.508 23.1487 127.426 23.0699C127.343 22.9949 127.235 22.8411 127.186 22.7324C127.112 22.5674 127.093 22.4661 127.093 22.1923C127.093 21.9673 127.112 21.8098 127.149 21.7235C127.183 21.6523 127.265 21.5285 127.336 21.446C127.407 21.3672 127.545 21.266 127.65 21.2172C127.751 21.1685 127.971 21.101 128.136 21.0634C128.364 21.0147 128.607 20.9997 129.164 20.9997C129.717 20.9997 130.17 21.0297 131.052 21.1235C131.834 21.206 132.417 21.2472 132.847 21.251C133.426 21.2547 133.516 21.2435 133.856 21.1535C134.062 21.0972 134.499 20.9584 134.828 20.8422C135.157 20.7259 135.576 20.5871 135.763 20.5384C136.025 20.4671 136.159 20.4521 136.361 20.4634ZM35.7333 34.7487C35.9427 34.7599 36.0623 34.7862 36.2007 34.8574C36.3016 34.9099 36.4624 35.0337 36.5559 35.135C36.6456 35.2362 36.7615 35.4125 36.8138 35.525C36.8811 35.675 36.9036 35.7988 36.9073 35.975C36.9073 36.1626 36.8849 36.2638 36.8063 36.4251C36.7465 36.5526 36.5297 36.8301 36.2343 37.1564C35.9726 37.4452 35.6025 37.8652 35.4155 38.094C35.2249 38.319 34.9145 38.7166 34.7201 38.9754C34.5257 39.2341 34.2416 39.6392 34.0808 39.8755C33.9238 40.1117 33.677 40.5093 33.5275 40.7568C33.3817 41.0043 33.105 41.5181 32.9143 41.9007C32.7237 42.2832 32.4844 42.812 32.3797 43.0821C32.275 43.3483 32.1217 43.7796 32.0395 44.0384C31.9572 44.2972 31.86 44.6085 31.8264 44.7322C31.7927 44.856 31.688 45.3023 31.5983 45.7261C31.5086 46.1499 31.359 46.8137 31.2656 47.2075C31.1721 47.5975 31.0562 47.9876 31.0113 48.0663C30.9665 48.1489 30.8692 48.2576 30.7982 48.3064C30.6898 48.3776 30.6337 48.3926 30.4804 48.3776C30.372 48.3701 30.2 48.3139 30.0692 48.2426C29.9458 48.1789 29.7663 48.0551 29.6654 47.9651C29.5121 47.8301 29.4822 47.7776 29.4523 47.6013C29.4298 47.4888 29.4149 47.0387 29.4149 46.6074C29.4149 46.1536 29.4373 45.6136 29.471 45.3323C29.5009 45.0623 29.5607 44.6572 29.6056 44.4322C29.6467 44.2034 29.7215 43.8509 29.7738 43.6446C29.8261 43.4384 29.9271 43.0746 29.9981 42.8383C30.0729 42.602 30.2411 42.1295 30.3757 41.7882C30.5103 41.4469 30.7571 40.8918 30.9253 40.5505C31.0936 40.2093 31.3291 39.763 31.4487 39.5567C31.5721 39.3504 31.8301 38.9379 32.0282 38.6378C32.2264 38.3378 32.5629 37.8577 32.7797 37.569C32.9966 37.2802 33.3405 36.8414 33.5462 36.5939C33.7518 36.3463 34.1444 35.8925 34.4248 35.585C34.7014 35.2775 34.9781 34.9849 35.0417 34.9399C35.1015 34.8912 35.2211 34.8274 35.3034 34.7937C35.4043 34.7562 35.5427 34.7412 35.7333 34.7487ZM83.7947 40.8468L85.1032 40.8618C86.0603 40.8731 86.5165 40.8956 86.8044 40.9406C87.0212 40.9743 87.3801 41.0456 87.6082 41.0981C87.8325 41.1544 88.1615 41.2481 88.3372 41.3081C88.5129 41.3719 88.7896 41.4844 88.9541 41.5631C89.1186 41.6419 89.4028 41.8069 89.5897 41.9269C89.7729 42.0507 90.0757 42.2757 90.2627 42.4332C90.4459 42.587 90.7824 42.9058 91.0104 43.1421C91.2347 43.3783 91.5488 43.7309 91.7096 43.9259C91.8666 44.1209 92.1171 44.466 92.2704 44.6947C92.4199 44.9198 92.6405 45.291 92.7564 45.5198C92.8723 45.7448 93.0293 46.0861 93.1004 46.2774C93.1751 46.4687 93.2761 46.7987 93.3284 47.0087C93.392 47.2638 93.4331 47.5525 93.4481 47.8638C93.463 48.2239 93.4556 48.4039 93.4069 48.6514C93.3696 48.8427 93.2798 49.1015 93.1826 49.3077C93.063 49.559 92.9471 49.7203 92.7452 49.9415C92.5919 50.1028 92.3414 50.3316 92.1881 50.4479C92.0348 50.5641 91.732 50.7591 91.5151 50.8829C91.2983 51.0029 90.902 51.1979 90.6365 51.3179C90.3674 51.4342 89.9224 51.6067 89.6458 51.7005C89.3691 51.7942 88.9317 51.9218 88.6737 51.9818C88.4157 52.0455 88.012 52.1318 87.7764 52.173C87.5409 52.2143 86.9352 52.3005 86.4305 52.3643C85.9258 52.4243 85.507 52.4843 85.4958 52.4956C85.4846 52.5106 85.507 52.9606 85.5444 53.5007C85.5818 54.0407 85.6266 54.7721 85.6453 55.1284C85.6715 55.5559 85.6715 55.8672 85.6453 56.0397C85.6229 56.1822 85.5668 56.381 85.5182 56.4785C85.4696 56.576 85.3313 56.7598 85.2117 56.8873C85.0883 57.0148 84.8976 57.1611 84.7854 57.2211C84.6284 57.2998 84.5237 57.3261 84.3555 57.3261C84.1835 57.3261 84.0863 57.3036 83.9442 57.2248C83.8395 57.1723 83.6937 57.0636 83.619 56.9848C83.5442 56.9098 83.4208 56.7448 83.346 56.621C83.275 56.4972 83.1965 56.336 83.1778 56.2647C83.1591 56.1935 83.1254 56.0097 83.103 55.8597C83.0843 55.7097 83.0395 55.2709 83.0095 54.8846C82.9796 54.4983 82.9385 53.8382 82.9198 53.4144C82.8974 52.9906 82.8637 52.1993 82.8413 51.6517C82.8226 51.1042 82.789 50.0841 82.7665 49.3827C82.7441 48.6814 82.7142 47.2113 82.6955 46.1199C82.6805 45.0248 82.6805 43.6671 82.6955 43.1008C82.7104 42.5345 82.7404 41.9794 82.7628 41.8707C82.7852 41.7619 82.8263 41.6344 82.8488 41.5856C82.8749 41.5369 82.9722 41.4169 83.0619 41.3156C83.1716 41.1931 83.3211 41.0843 83.5105 40.9893L83.7947 40.8468ZM85.35 44.9085C85.3463 45.8011 85.3649 47.0725 85.3836 47.7326C85.4061 48.3926 85.4397 49.0827 85.4584 49.2702C85.4808 49.454 85.507 49.6378 85.5145 49.6715C85.5257 49.709 85.5855 49.7503 85.6528 49.7653C85.7201 49.7803 85.9183 49.7878 86.094 49.784C86.2697 49.7803 86.6398 49.7353 86.9165 49.679C87.1932 49.6265 87.7353 49.4915 88.1204 49.379C88.5092 49.2665 89.0364 49.0977 89.2981 49.0039C89.5635 48.9064 89.9262 48.7527 90.1131 48.6589C90.2963 48.5689 90.5206 48.4339 90.6066 48.3664C90.6964 48.2951 90.7936 48.1864 90.8235 48.1264C90.8534 48.0626 90.8796 47.9426 90.8796 47.8526C90.8796 47.7663 90.8497 47.6013 90.8085 47.4888C90.7711 47.3725 90.6777 47.1587 90.6029 47.0087C90.5281 46.8587 90.33 46.5324 90.158 46.2774C89.9897 46.0261 89.7505 45.6923 89.6271 45.5386C89.5037 45.3811 89.2532 45.0998 89.0663 44.9048C88.8831 44.7135 88.6214 44.4697 88.4868 44.3685C88.3522 44.2672 88.0568 44.0909 87.8325 43.9822C87.6044 43.8696 87.2268 43.7196 86.9913 43.6484C86.7557 43.5771 86.352 43.4759 86.094 43.4271C85.836 43.3746 85.5631 43.3221 85.4883 43.3071L85.35 43.2846V44.9085ZM67.1386 41.7357C67.2545 41.7469 67.4116 41.7844 67.4938 41.8219C67.5761 41.8594 67.7032 41.9382 67.7742 41.9982C67.8453 42.0582 67.9836 42.2307 68.0845 42.3882C68.1855 42.542 68.4659 43.0746 68.7089 43.5696C68.9482 44.0647 69.3108 44.7735 69.5127 45.1448C69.7146 45.5161 70.2081 46.3937 70.6082 47.095C71.0082 47.7963 71.5578 48.7302 71.8233 49.1765C72.0887 49.619 72.5448 50.3616 72.8327 50.8266C73.1243 51.2879 73.5356 51.9405 73.7524 52.2705C73.9656 52.6006 74.2534 53.0206 74.3918 53.2081C74.5301 53.3919 74.6684 53.5644 74.7058 53.5907C74.7544 53.6319 74.7731 53.6282 74.803 53.5719C74.8217 53.5382 74.9376 53.2382 75.0647 52.9081C75.1919 52.5781 75.5919 51.5055 75.9508 50.5266C76.3135 49.544 76.7472 48.3889 76.9154 47.9576C77.0874 47.5225 77.3379 46.9075 77.4762 46.5887C77.6146 46.2662 77.9473 45.4748 78.2128 44.826C78.4819 44.1734 78.7511 43.5434 78.8184 43.4233C78.882 43.3033 79.0203 43.1233 79.1213 43.0258C79.226 42.9283 79.4204 42.7933 79.5512 42.7258C79.7382 42.632 79.8578 42.5945 80.0559 42.5833C80.2391 42.5683 80.3775 42.5833 80.5046 42.6245C80.6093 42.6583 80.7663 42.7408 80.856 42.8083C80.9458 42.8758 81.0617 42.9996 81.1065 43.0821C81.1551 43.1646 81.2112 43.3146 81.2299 43.4196C81.2523 43.5471 81.2486 43.6896 81.215 43.8696C81.1925 44.0122 81.1252 44.2822 81.0691 44.4697C81.0131 44.6535 80.8747 45.066 80.7626 45.3886C80.6467 45.7073 80.2354 46.7687 79.8428 47.7513C79.454 48.7302 79.0166 49.844 78.8708 50.2266C78.7287 50.6054 78.4932 51.2467 78.3474 51.6517C78.2053 52.053 77.8389 53.1256 77.5323 54.0332C77.2295 54.9408 76.8855 55.9422 76.7696 56.2647C76.65 56.5835 76.4481 57.0636 76.3172 57.3336C76.1826 57.6036 76.0069 57.8999 75.9172 58.0049C75.8312 58.1062 75.6816 58.2299 75.5882 58.2862C75.4386 58.3725 75.3825 58.3837 75.0647 58.3837C74.7619 58.3837 74.6871 58.3687 74.5413 58.2937C74.4516 58.2412 74.2908 58.1137 74.1861 58.0087C74.0852 57.9037 73.9132 57.6899 73.8085 57.5361C73.7038 57.3823 73.4534 56.9698 73.2515 56.621C73.0496 56.2685 72.7393 55.7359 72.5598 55.4396C72.3841 55.1396 71.8158 54.202 71.2999 53.3582C70.7876 52.5106 70.096 51.3817 69.767 50.8454C69.438 50.3091 68.9445 49.4877 68.6715 49.0264C68.3949 48.5614 67.9873 47.8526 67.763 47.4513C67.5424 47.0462 67.0863 46.1686 66.7536 45.5011C66.4208 44.8298 66.0694 44.0797 65.9722 43.8321C65.875 43.5846 65.7777 43.3033 65.7553 43.2133C65.7291 43.1196 65.7217 42.9658 65.7329 42.8758C65.7478 42.782 65.7964 42.6208 65.8488 42.5195C65.8974 42.4145 66.0208 42.2457 66.118 42.1407C66.2189 42.0357 66.3759 41.9119 66.4657 41.8632C66.5591 41.8182 66.7012 41.7657 66.7835 41.7469C66.8657 41.7319 67.0265 41.7244 67.1386 41.7357ZM106.732 43.1121C107.008 43.1196 107.117 43.1383 107.214 43.1946C107.285 43.2358 107.375 43.3108 107.412 43.3633C107.45 43.4121 107.506 43.5584 107.536 43.6821C107.569 43.8059 107.629 44.1584 107.666 44.4697C107.708 44.7772 107.775 45.5386 107.816 46.1574C107.857 46.7762 107.917 47.7963 107.947 48.4264C107.977 49.0527 108.029 50.1328 108.059 50.8266C108.089 51.5167 108.134 52.6718 108.156 53.3957C108.182 54.1157 108.194 54.8658 108.182 55.0646C108.171 55.3271 108.149 55.4584 108.093 55.5709C108.048 55.6534 107.932 55.7922 107.831 55.8859C107.73 55.9759 107.524 56.1072 107.367 56.1822C107.128 56.2947 107.038 56.3172 106.75 56.3322C106.519 56.3435 106.328 56.3285 106.134 56.2872C105.98 56.2535 105.711 56.1597 105.535 56.0847C105.363 56.0059 105.049 55.8409 104.844 55.7209C104.638 55.6009 104.186 55.3084 103.834 55.0721C103.487 54.8358 102.814 54.352 102.339 53.9957C101.868 53.6394 100.866 52.8556 100.114 52.2555C99.3665 51.6517 98.6038 51.0554 98.4243 50.9279C98.2411 50.8004 98.0729 50.6879 98.0504 50.6766C98.0131 50.6654 98.0093 50.7366 98.028 50.9767C98.043 51.1529 98.1551 51.918 98.2785 52.6831C98.4056 53.4444 98.5327 54.2808 98.5664 54.5395C98.6 54.7946 98.6225 55.1321 98.6113 55.2896C98.6 55.4996 98.5701 55.6309 98.4841 55.8147C98.4206 55.9459 98.286 56.1485 98.185 56.261C98.0841 56.3697 97.9383 56.4935 97.8635 56.531C97.785 56.5685 97.6504 56.6135 97.5644 56.6248C97.4522 56.6435 97.3289 56.6248 97.1419 56.5685C96.9999 56.5235 96.8055 56.4335 96.712 56.366C96.6223 56.2985 96.4727 56.1335 96.383 55.9984C96.297 55.8672 96.1886 55.6647 96.1474 55.5522C96.1063 55.4359 96.0315 55.1546 95.9792 54.9221C95.9306 54.6896 95.8334 54.1495 95.7623 53.722C95.6876 53.2944 95.5455 52.3531 95.4446 51.633C95.3399 50.9091 95.1978 49.8553 95.1268 49.289C95.0557 48.7189 94.9697 47.9613 94.9361 47.6013C94.8987 47.23 94.8837 46.8287 94.895 46.6824C94.9099 46.5362 94.9436 46.3337 94.9772 46.2324C95.0071 46.1274 95.0894 45.9436 95.1529 45.8199C95.2202 45.6961 95.381 45.4823 95.5156 45.3473C95.7063 45.1523 95.8072 45.0848 95.9642 45.0323C96.1138 44.9835 96.2409 44.9685 96.4316 44.9835C96.5923 44.9948 96.7718 45.036 96.8952 45.0923C97.0111 45.141 97.1681 45.2535 97.2541 45.3511C97.3401 45.4411 97.5532 45.7373 97.7327 46.0074C97.9084 46.2737 98.1663 46.6374 98.3084 46.8137C98.4467 46.9862 98.858 47.4325 99.2169 47.8001C99.5758 48.1714 100.125 48.7039 100.436 48.9814C100.742 49.2627 101.247 49.7053 101.557 49.9641C101.864 50.2191 102.544 50.7779 103.072 51.2017C103.599 51.6217 104.253 52.128 104.522 52.3268C104.791 52.5218 105.098 52.7281 105.199 52.7844C105.304 52.8406 105.412 52.8781 105.442 52.8706C105.476 52.8594 105.509 52.8031 105.524 52.7468C105.539 52.6906 105.52 52.1205 105.487 51.483C105.453 50.8416 105.378 49.4577 105.326 48.4076C105.27 47.3313 105.225 45.9924 105.225 45.3511C105.218 44.2634 105.221 44.1922 105.304 43.9334C105.36 43.7459 105.431 43.6146 105.532 43.5021C105.61 43.4158 105.741 43.3108 105.82 43.2696C105.902 43.2283 106.059 43.1758 106.171 43.1496C106.287 43.1233 106.537 43.1046 106.732 43.1121ZM10.7885 52.7769C10.8147 52.7769 10.897 52.8069 10.9755 52.8481C11.0503 52.8894 11.5288 53.2532 12.0298 53.6582C12.5345 54.067 13.2673 54.6558 13.6561 54.9708C14.0487 55.2821 14.6544 55.7547 15.0021 56.0172C15.3535 56.2835 16.034 56.7635 16.5163 57.0861C17.0023 57.4086 17.75 57.8849 18.18 58.1437C18.6137 58.4025 19.3353 58.8187 19.7877 59.0663C20.24 59.3176 20.9616 59.7038 21.3916 59.9251C22.1244 60.3077 22.1842 60.3452 22.3038 60.5214C22.416 60.6827 22.4309 60.7315 22.416 60.8777C22.4048 60.979 22.3449 61.1402 22.2552 61.2903C22.1767 61.4215 22.1131 61.5378 22.1094 61.5415C22.1094 61.5453 21.9299 61.5153 21.7131 61.4703C21.4626 61.4215 21.1897 61.3315 20.9467 61.2228C20.741 61.1327 20.3559 60.9452 20.0868 60.8102C19.8213 60.6752 19.2979 60.3977 18.9277 60.1914C18.5576 59.9851 18.0118 59.6626 17.7127 59.4788C17.4173 59.2913 16.9275 58.9763 16.6284 58.7737C16.3331 58.575 15.8433 58.2262 15.5442 58.0049C15.2488 57.7836 14.7927 57.4311 14.5347 57.2248C14.2805 57.0148 13.8655 56.6698 13.6188 56.456C13.372 56.2385 12.5943 55.4884 11.8877 54.7833C11.1811 54.082 10.5829 53.4632 10.5567 53.4144C10.5268 53.3619 10.4932 53.2607 10.4782 53.1894C10.4633 53.1144 10.4633 53.0206 10.4745 52.9719C10.4894 52.9269 10.553 52.8631 10.6203 52.8331C10.6876 52.8031 10.7624 52.7769 10.7885 52.7769ZM12.1607 58.6462C12.3027 58.6612 12.4597 58.725 12.7775 58.905C13.0168 59.0363 14.0674 59.6026 15.1142 60.1651C16.1648 60.7277 17.0958 61.2378 17.1855 61.3015C17.2752 61.369 17.3911 61.4965 17.4435 61.5903C17.507 61.7028 17.5407 61.8116 17.5369 61.9278C17.5369 62.0178 17.5033 62.1641 17.4622 62.2466C17.421 62.3291 17.3126 62.4604 17.0584 62.6854L16.7593 62.6629C16.5499 62.6517 16.3518 62.6029 16.0863 62.5091C15.8807 62.4341 15.5106 62.2766 15.2638 62.1566C15.017 62.0366 14.632 61.8266 14.4039 61.6878C14.1796 61.5453 13.802 61.2903 13.5627 61.1177C13.3271 60.9415 12.9832 60.6677 12.7962 60.5102C12.613 60.3489 12.3214 60.0564 12.1494 59.8614C11.9812 59.6663 11.7943 59.4413 11.7382 59.3588C11.6709 59.2575 11.6335 59.1525 11.626 59.0213C11.6185 58.8975 11.6335 58.8075 11.6671 58.7625C11.6971 58.725 11.7793 58.68 11.8466 58.6612C11.9176 58.6462 12.0597 58.6387 12.1607 58.6462Z" fill="#7100BF"/>
</svg>
