<svg width="19" height="17" viewBox="0 0 19 17" fill="none" xmlns="http://www.w3.org/2000/svg">
<path d="M17.1255 0.595994C17.1899 0.576463 17.2993 0.547166 17.3696 0.531541C17.4536 0.51201 17.5864 0.504197 17.7622 0.50615L17.7629 0.50616C18.0239 0.510057 18.028 0.510117 18.1763 0.582322C18.2954 0.640916 18.3423 0.678025 18.4048 0.758104C18.4458 0.814744 18.5005 0.914354 18.522 0.978807C18.5454 1.04326 18.5728 1.16826 18.5825 1.25615C18.5942 1.35967 18.5923 1.49834 18.5806 1.63701C18.5688 1.7581 18.5474 1.96318 18.5298 2.09209C18.5142 2.22099 18.4712 2.54131 18.4341 2.80498C18.397 3.06865 18.3013 3.72685 18.2192 4.26982L18.1968 4.42233C18.122 4.92932 18.0399 5.48641 18.0044 5.71513C17.9653 5.96709 17.895 6.4417 17.8462 6.76982C17.7993 7.09795 17.6938 7.7874 17.6138 8.30303C17.5337 8.81865 17.4497 9.3499 17.4282 9.48467C17.4067 9.61943 17.3052 10.2659 17.2036 10.9202C17.1021 11.5745 16.936 12.6565 16.8325 13.3226C16.729 13.9886 16.6274 14.6429 16.606 14.7776C16.5845 14.9124 16.5513 15.0784 16.5298 15.1487C16.5083 15.219 16.4556 15.3499 16.4106 15.4417C16.3657 15.5335 16.2935 15.6565 16.2485 15.7151C16.2017 15.7737 16.1216 15.8558 16.0688 15.8948C16.0161 15.9339 15.9243 15.9886 15.8657 16.0159C15.8071 16.0433 15.6919 16.0745 15.6118 16.0843C15.522 16.096 15.4048 16.096 15.3091 16.0843C15.2231 16.0745 15.0825 16.0491 14.9966 16.0257C14.9106 16.0042 14.7563 15.9534 14.6548 15.9163C14.5532 15.8772 14.356 15.7894 14.2153 15.721C14.0747 15.6507 13.8833 15.5452 13.7856 15.4847C13.688 15.4261 13.522 15.3147 13.4146 15.2366C13.3071 15.1604 12.8989 14.8812 12.5063 14.6175C12.1138 14.3558 11.52 13.9515 11.188 13.7229C10.856 13.4944 10.397 13.1741 10.1724 13.014C9.94775 12.8519 9.59033 12.5921 9.38135 12.4319C9.17236 12.2737 8.89893 12.0589 8.77588 11.9573C8.65283 11.8538 8.51221 11.7229 8.46533 11.6663C8.41846 11.6116 8.34814 11.4983 8.30908 11.4183C8.24268 11.2796 8.23877 11.2601 8.23877 11.0765C8.23877 10.8948 8.24268 10.8714 8.30322 10.7444C8.33838 10.6702 8.40283 10.5628 8.44385 10.5101C8.48486 10.4554 8.65283 10.2854 8.81885 10.1312C8.98291 9.9749 9.28955 9.68584 9.49854 9.48662L9.55072 9.43688C9.75305 9.24403 10.0059 9.00305 10.1333 8.8792C10.2739 8.74443 10.9497 8.08428 11.6372 7.41045C12.3247 6.73662 13.0669 6.00029 13.2876 5.77178C13.5083 5.54521 13.7388 5.29131 13.7993 5.20928C13.8618 5.12724 13.9478 4.98662 13.9927 4.89482C14.0493 4.77763 14.0786 4.69365 14.0864 4.60771C14.0962 4.49638 14.0942 4.48271 14.0493 4.43584C14.0103 4.39482 13.9829 4.38506 13.9028 4.38701C13.8501 4.38701 13.7427 4.40459 13.6685 4.42803C13.5942 4.44951 13.4263 4.52373 13.2974 4.59013C13.1685 4.65849 12.9438 4.78935 12.7993 4.88115C12.6548 4.9749 12.3247 5.19951 12.0669 5.38115C11.8091 5.56279 11.229 5.97099 10.7778 6.2874C10.3267 6.60185 9.77393 6.98857 9.55127 7.14287L9.49969 7.17861C9.28798 7.32532 9.04686 7.49241 8.9458 7.56279C8.83643 7.63701 8.56104 7.82646 8.33643 7.98076C8.11182 8.13701 7.61768 8.4749 7.23877 8.73271C6.85986 8.99053 6.36377 9.32842 6.13525 9.48271C5.90674 9.63896 5.67432 9.78349 5.62158 9.80693C5.56885 9.83037 5.45361 9.86748 5.36768 9.89092C5.28174 9.91435 5.1333 9.9417 5.03564 9.95537C4.92822 9.96904 4.74463 9.9749 4.56689 9.96709C4.36377 9.95928 4.19775 9.9417 4.02979 9.90654C3.89502 9.8792 3.58252 9.79326 3.33643 9.71904C3.09033 9.64287 2.46924 9.43974 1.95947 9.26982C1.44971 9.0999 0.908691 8.91435 0.758301 8.86162C0.525879 8.77763 0.473145 8.75029 0.400879 8.67998C0.354004 8.6331 0.291504 8.54326 0.258301 8.47881C0.215332 8.39092 0.20166 8.33428 0.20166 8.2542C0.20166 8.18389 0.217285 8.11357 0.246582 8.04912C0.271973 7.99443 0.32666 7.9124 0.369629 7.86553C0.410645 7.81865 0.494629 7.74248 0.553223 7.69756C0.611816 7.65264 0.73877 7.5706 0.836426 7.51592C0.934082 7.46123 1.07275 7.39092 1.14893 7.35967C1.2251 7.32842 1.45166 7.23076 1.65674 7.14482C1.86182 7.05888 2.35791 6.85185 2.76025 6.68193C3.1626 6.51396 3.71729 6.28154 3.99072 6.16435L4.98682 5.74443C5.26025 5.6292 6.17432 5.24248 7.01807 4.88506C7.86182 4.52764 8.83643 4.11357 9.18604 3.96709C9.53564 3.81865 10.0532 3.5999 10.3384 3.47881C10.6235 3.35771 11.0278 3.18584 11.2368 3.09795C11.4458 3.01006 11.7681 2.87334 11.9497 2.79521C12.1313 2.71709 12.5884 2.51787 12.9653 2.35576C13.3403 2.1917 13.8501 1.97099 14.0981 1.86748C14.3462 1.76201 14.7583 1.58623 15.0161 1.47685C15.2739 1.36748 15.5942 1.23076 15.729 1.17412C15.8638 1.11748 16.2056 0.972947 16.4907 0.851854C16.7759 0.732713 17.061 0.617479 17.1255 0.595994Z" fill="white"/>
</svg>
