<svg width="27" height="17" viewBox="0 0 27 17" fill="none" xmlns="http://www.w3.org/2000/svg">
<path d="M0.221201 0.801051C0.211431 0.580274 0.20166 0.310652 0.20166 0.20124V0H4.75466L4.76248 0.0644748C4.76834 0.0976892 4.77616 0.302836 4.78202 0.517753C4.78984 0.732669 4.80742 1.08435 4.82306 1.29927C4.83869 1.51418 4.86605 1.82288 4.88168 1.98309C4.89927 2.14525 4.93835 2.46958 4.97157 2.70599C5.00283 2.9424 5.06145 3.30385 5.09858 3.50704C5.13571 3.71219 5.19238 3.99744 5.2256 4.14202C5.25686 4.2866 5.32135 4.55622 5.3702 4.73792C5.4171 4.92158 5.49917 5.21465 5.55388 5.39244C5.60664 5.57024 5.7063 5.86526 5.77274 6.04696C5.83722 6.23061 5.95838 6.53345 6.03849 6.72101C6.11861 6.90858 6.26712 7.22509 6.36873 7.42438C6.46839 7.62366 6.62667 7.91282 6.72047 8.06912C6.81231 8.22543 6.97059 8.4716 7.0722 8.61618C7.17186 8.76076 7.33405 8.98154 7.43175 9.10463C7.52946 9.22772 7.71509 9.44263 7.84016 9.58331C7.96717 9.72398 8.17626 9.93108 8.30327 10.0464C8.43224 10.1616 8.60615 10.3101 8.69213 10.3785C8.77811 10.4488 8.93639 10.5661 9.04387 10.6423C9.15134 10.7185 9.32721 10.8318 9.43468 10.8962C9.54216 10.9607 9.7278 11.0623 9.84504 11.1209C9.96229 11.1815 10.1616 11.2694 10.2847 11.3183C10.4078 11.3671 10.5798 11.4277 10.6658 11.455C10.7517 11.4804 10.8514 11.5078 10.9491 11.5273V0H15.2481V6.58425L15.3399 6.57253C15.3927 6.56666 15.5177 6.54517 15.6193 6.52368C15.721 6.50414 15.8831 6.46507 15.9808 6.43772C16.0786 6.40841 16.2407 6.35566 16.3424 6.31658C16.444 6.27946 16.655 6.18763 16.8113 6.11143C16.9677 6.03719 17.1689 5.93169 17.2608 5.87503C17.3526 5.82032 17.505 5.72263 17.6027 5.65816C17.7004 5.59563 17.8489 5.49013 17.9349 5.42566C18.0209 5.36118 18.189 5.22637 18.3062 5.12868C18.4234 5.03099 18.6247 4.84929 18.7537 4.7262C18.8807 4.60311 19.0839 4.39406 19.2051 4.25925C19.3262 4.12444 19.4865 3.94078 19.5607 3.84895C19.635 3.75712 19.7718 3.58128 19.8636 3.4582C19.9554 3.33511 20.1098 3.11433 20.2056 2.96975C20.3033 2.82517 20.4537 2.5829 20.5417 2.43246C20.6296 2.28202 20.7703 2.02217 20.8563 1.85609C20.9403 1.69002 21.0634 1.42626 21.1298 1.26996C21.1963 1.11366 21.2979 0.859665 21.3546 0.703362C21.4112 0.547059 21.4874 0.326282 21.5891 0H23.7327C25.8646 0 25.8783 0 25.8783 0.0390757C25.8783 0.0605673 25.847 0.220777 25.8099 0.396618C25.7727 0.570505 25.6946 0.879202 25.636 1.08435C25.5773 1.2895 25.4855 1.57866 25.4327 1.7291C25.378 1.87954 25.2764 2.1433 25.2041 2.31523C25.1338 2.48717 24.9872 2.80368 24.8817 3.01859C24.7742 3.23351 24.6022 3.55393 24.4987 3.73173C24.3951 3.90952 24.2134 4.19868 24.0942 4.37647C23.9769 4.55427 23.7952 4.81412 23.6916 4.95284C23.5861 5.09351 23.4142 5.31234 23.3086 5.44129C23.2031 5.57024 23.0175 5.78515 22.8983 5.91996C22.7771 6.05477 22.5212 6.31853 22.3297 6.51001C22.1362 6.69952 21.888 6.93593 21.7747 7.03557C21.6614 7.13326 21.4523 7.3091 21.3096 7.42242C21.167 7.53574 20.9462 7.70181 20.8211 7.79169C20.696 7.88156 20.4713 8.032 20.3248 8.12383C20.1763 8.21761 20.0571 8.29772 20.0571 8.30358C20.0571 8.30944 20.1548 8.36219 20.2759 8.4208C20.3971 8.47942 20.6179 8.5986 20.7683 8.68457C20.9188 8.77053 21.1592 8.91707 21.3018 9.00694C21.4445 9.09877 21.6868 9.26289 21.8392 9.37425C21.9916 9.48562 22.2144 9.65364 22.3316 9.74742C22.4489 9.84121 22.6443 9.99946 22.7615 10.1011C22.8787 10.2027 23.1465 10.4527 23.3555 10.6579C23.5627 10.8611 23.8323 11.1385 23.9515 11.2733C24.0727 11.4081 24.2544 11.6191 24.356 11.7422C24.4576 11.8653 24.6296 12.0861 24.7371 12.2307C24.8465 12.3753 25.036 12.6488 25.1592 12.8364C25.2823 13.0239 25.4386 13.2701 25.507 13.3834C25.5734 13.4967 25.7063 13.7331 25.802 13.9109C25.8978 14.0887 26.0483 14.3955 26.1382 14.5948C26.23 14.794 26.3609 15.1008 26.4313 15.2786C26.5016 15.4564 26.6032 15.7338 26.656 15.894C26.7107 16.0562 26.785 16.2906 26.8944 16.6462L22.1557 16.6482L22.06 16.3786C22.0092 16.2301 21.9134 15.9859 21.8489 15.8354C21.7845 15.685 21.6672 15.4349 21.591 15.2786C21.5128 15.1223 21.4054 14.921 21.3546 14.8292C21.3018 14.7374 21.1982 14.5655 21.124 14.4482C21.0497 14.331 20.9227 14.1415 20.8406 14.0282C20.7605 13.9148 20.6452 13.7605 20.5847 13.6863C20.5241 13.612 20.399 13.4616 20.3072 13.3541C20.2134 13.2466 20.0023 13.0259 19.8382 12.8657C19.6721 12.7035 19.4181 12.4769 19.2735 12.3596C19.1289 12.2444 18.8963 12.0724 18.7556 11.9786C18.6149 11.8849 18.4489 11.7755 18.3844 11.7383C18.3214 11.7001 18.1893 11.6265 18.0885 11.5703L18.0815 11.5664C17.9799 11.5117 17.7864 11.414 17.6516 11.3534C17.5168 11.2909 17.2862 11.1932 17.1377 11.1385C16.9911 11.0838 16.7449 11.0037 16.5925 10.9607C16.4381 10.9177 16.1899 10.8552 16.0395 10.824C15.889 10.7927 15.6662 10.7536 15.547 10.738C15.4259 10.7204 15.3086 10.7067 15.2872 10.7067C15.2481 10.7067 15.2481 10.7204 15.2481 16.6462H14.6384C14.3023 16.6462 13.8822 16.6365 13.7043 16.6267C13.5265 16.615 13.2334 16.5935 13.0497 16.5778C12.866 16.5603 12.5808 16.529 12.4147 16.5075C12.2486 16.486 11.9633 16.443 11.7796 16.4118C11.5959 16.3805 11.2989 16.3239 11.1152 16.2848C10.9315 16.2457 10.6345 16.1734 10.4508 16.1265C10.2671 16.0777 9.9701 15.9898 9.78642 15.9331C9.60273 15.8745 9.32135 15.7788 9.16111 15.7182C8.99892 15.6576 8.76248 15.5638 8.63351 15.5091C8.50454 15.4544 8.25051 15.3372 8.06683 15.2512C7.88314 15.1633 7.60176 15.0168 7.44152 14.9269C7.27933 14.837 7.04289 14.6983 6.91392 14.6182C6.78495 14.5381 6.58173 14.4052 6.46448 14.3251C6.34724 14.2431 6.13034 14.0887 5.98573 13.9774C5.84113 13.868 5.59492 13.6687 5.43859 13.5358C5.28227 13.401 5.0341 13.1744 4.88363 13.0298C4.73512 12.8852 4.50063 12.6449 4.36385 12.4944C4.22706 12.344 4.0297 12.1154 3.92418 11.9865C3.81866 11.8575 3.65647 11.6504 3.56463 11.5273C3.47083 11.4042 3.29888 11.1581 3.17968 10.9803C3.06048 10.8025 2.9022 10.5563 2.82599 10.4332C2.75173 10.3101 2.60713 10.0581 2.50747 9.87637C2.40586 9.69467 2.24758 9.38597 2.15379 9.19255C2.06194 8.99912 1.93102 8.71778 1.86849 8.56734C1.80401 8.4169 1.70826 8.1883 1.65745 8.05935C1.60664 7.93041 1.51089 7.67055 1.4425 7.48299C1.37606 7.29543 1.2764 6.9965 1.22169 6.8187C1.16698 6.64091 1.09077 6.38692 1.05364 6.25211C1.01651 6.11729 0.953981 5.88089 0.914899 5.72458C0.875817 5.56828 0.805471 5.26545 0.758573 5.05053C0.711675 4.83561 0.63742 4.45853 0.592476 4.2104C0.549486 3.96423 0.483048 3.54221 0.44592 3.27259C0.408793 3.00492 0.361895 2.6083 0.3404 2.39338C0.318905 2.17847 0.28764 1.82288 0.272007 1.6021C0.25442 1.38132 0.232925 1.02183 0.221201 0.801051Z" fill="white"/>
</svg>
