<svg width="23" height="22" viewBox="0 0 23 22" fill="none" xmlns="http://www.w3.org/2000/svg">
    <path d="M8.6818 0.436616C9.16774 0.289826 9.93347 0.128358 10.3752 0.0549629C10.817 -0.00375292 11.7447 -0.0184319 12.4368 0.025605C13.1289 0.0696419 14.1303 0.23111 14.6751 0.3779C15.2347 0.539368 16.1182 0.876984 16.6778 1.15588C17.2226 1.42011 18.0914 1.97791 18.6068 2.35956C19.137 2.75589 19.8732 3.47516 20.2708 3.95956C20.6684 4.44397 21.2427 5.33939 21.5667 5.94122C21.8759 6.54306 22.2882 7.57059 22.4649 8.21646C22.7005 9.08252 22.7742 9.81647 22.7742 11.0055C22.7742 12.1504 22.6858 12.9431 22.4797 13.7211C22.3177 14.3229 21.9643 15.277 21.6698 15.8495C21.39 16.4073 20.8304 17.3027 20.4475 17.8165C20.0499 18.3449 19.2989 19.1082 18.7688 19.5339C18.2387 19.9596 17.3404 20.5321 16.7809 20.8257C16.2213 21.1046 15.22 21.4862 14.572 21.6624C13.6738 21.9119 12.9964 22 11.7742 22C10.5519 22 9.87457 21.9119 8.97631 21.6624C8.32839 21.4862 7.32705 21.1046 6.76748 20.8257C6.2079 20.5321 5.30965 19.9596 4.77952 19.5339C4.2494 19.1082 3.4984 18.3449 3.10081 17.8165C2.71795 17.3027 2.15837 16.4073 1.87859 15.8495C1.58408 15.2917 1.23066 14.3229 1.06868 13.7211C0.862523 12.9431 0.77417 12.1504 0.77417 11.0055C0.77417 9.81647 0.847798 9.08252 1.08341 8.21646C1.26011 7.57059 1.67243 6.54306 1.98167 5.94122C2.30563 5.33939 2.87993 4.44397 3.27752 3.95956C3.67511 3.47516 4.41139 2.75589 4.94151 2.35956C5.4569 1.97791 6.31098 1.43478 6.8411 1.17056C7.37122 0.906342 8.19586 0.568726 8.6818 0.436616Z" fill="white"/>
    <path d="M15.1842 19.7879C15.472 19.3983 15.9181 18.6335 16.1627 18.0851L16.6231 17.1183L17.0547 17.3636C17.285 17.5079 17.6878 17.7965 18.3929 18.3882L18.0763 18.7345C17.9037 18.9076 17.2994 19.3405 16.7094 19.6724C16.1339 20.0043 15.4288 20.3362 14.6663 20.5094L15.1842 19.7879Z" fill="#7100BF"/>
    <path d="M5.29935 18.2583C5.34252 18.1861 5.70223 17.8975 6.11949 17.6089C6.53676 17.3348 6.89647 17.1039 6.93964 17.1039C6.96841 17.1039 7.18424 17.5512 7.41446 18.0851C7.64467 18.619 8.07633 19.3838 8.88208 20.4949L8.37849 20.3939C8.10511 20.3218 7.41446 20.0043 6.82453 19.6724C6.24899 19.3261 5.64467 18.9076 5.50079 18.7345C5.34252 18.5613 5.25618 18.3449 5.29935 18.2583Z" fill="#7100BF"/>
    <path d="M12.1339 20.8557L12.1483 18.316L12.1627 15.7763L12.8389 15.8773C13.1986 15.9351 13.8893 16.0794 14.3641 16.1948C14.8389 16.3247 15.3569 16.4978 15.8461 16.7431L15.5008 17.6089C15.2994 18.0851 14.9109 18.8066 14.6087 19.1962C14.3209 19.5859 13.8029 20.1198 13.4576 20.3795C13.1267 20.6537 12.695 20.8557 12.1339 20.8557Z" fill="#7100BF"/>
    <path d="M8.22021 16.5123C8.52237 16.368 9.21302 16.1659 9.75978 16.0505C10.3209 15.9351 10.9109 15.8341 11.4145 15.8052V21L10.954 20.8557C10.695 20.7835 10.249 20.5238 9.97561 20.3074C9.70223 20.0765 9.22741 19.5714 8.93964 19.1818C8.63748 18.7922 8.2346 18.0851 7.70223 16.7431L8.22021 16.5123Z" fill="#7100BF"/>
    <path d="M17.1555 15.0115C17.2994 14.3045 17.472 13.1789 17.5296 12.5296L17.6303 11.3319H19.7022C21.4432 11.3319 21.7742 11.3752 21.7742 11.5483C21.7742 11.6782 21.6878 12.241 21.5727 12.8182C21.4576 13.3954 21.2274 14.2179 21.0547 14.6508C20.8821 15.0981 20.5224 15.8052 20.249 16.2381C19.99 16.6854 19.6015 17.2193 19.0404 17.8254L18.5799 17.4358C18.3209 17.2193 17.8461 16.873 17.5296 16.6854C17.213 16.4978 16.9396 16.3391 16.9253 16.3247C16.9109 16.3247 17.0116 15.733 17.1555 15.0115Z" fill="#7100BF"/>
    <path d="M12.177 13.3665C12.1627 12.4719 12.177 11.6349 12.2058 11.5339C12.2634 11.3896 12.7958 11.3463 16.8101 11.3463L16.695 12.6017C16.6375 13.2944 16.4936 14.29 16.3785 14.8095C16.2634 15.329 16.1483 15.7619 16.1339 15.7908C16.1195 15.8052 15.6447 15.6898 15.0835 15.531C14.5368 15.3723 13.6591 15.1847 12.2058 15.026L12.177 13.3665Z" fill="#7100BF"/>
    <path d="M7.18424 14.8095C7.06913 14.29 6.92525 13.2944 6.8677 12.6017L6.78136 11.3319L11.3425 11.4185V15.026L10.4073 15.127C9.90367 15.1847 9.02597 15.3723 8.46482 15.531C7.91806 15.6898 7.44323 15.8052 7.42885 15.7908C7.40007 15.7619 7.28496 15.329 7.18424 14.8095Z" fill="#7100BF"/>
    <path d="M1.97561 12.8326C1.8605 12.2554 1.77417 11.6782 1.77417 11.5628C1.77417 11.3752 2.09072 11.3463 5.94683 11.3463L6.03316 12.544C6.07633 13.1934 6.2346 14.3189 6.37849 15.026L6.3785 15.026C6.52238 15.7475 6.63748 16.3247 6.62309 16.3391C6.59431 16.3391 6.29216 16.5267 5.94683 16.7431C5.58712 16.974 5.1123 17.3203 4.52237 17.912L4.14827 17.4791C3.94683 17.2482 3.55834 16.6854 3.28496 16.2525C3.02597 15.8196 2.65187 15.0981 2.47921 14.6652C2.32093 14.2323 2.07633 13.3954 1.97561 12.8326Z" fill="#7100BF"/>
    <path d="M13.1411 6.84416C13.6447 6.78644 14.4648 6.61328 14.9396 6.45455C15.4145 6.31024 15.8749 6.18037 15.9756 6.16594C16.0763 6.16594 16.1914 6.29581 16.2346 6.48341C16.2634 6.65657 16.3641 7.1039 16.4504 7.49351C16.5224 7.86869 16.6375 8.72006 16.8101 10.6248H12.1339L12.2058 6.94517L13.1411 6.84416Z" fill="#7100BF"/>
    <path d="M7.09791 7.49351C7.16985 7.1039 7.27057 6.65657 7.31374 6.48341C7.3569 6.29581 7.41446 6.15152 7.45762 6.15152C7.4864 6.15152 7.96122 6.28138 8.49359 6.44011C9.02597 6.61328 9.88928 6.78644 11.3425 6.94517L11.4145 10.6248H6.7382L6.83892 9.39827C6.89647 8.72006 7.01158 7.86869 7.09791 7.49351Z" fill="#7100BF"/>
    <path d="M17.6735 5.1847C18.0619 4.93939 18.508 4.59307 18.6663 4.43434C18.8101 4.26118 18.9972 4.13131 19.0835 4.13131C19.1699 4.13131 19.5008 4.50649 19.8029 4.96825C20.1051 5.41558 20.5368 6.18038 20.767 6.65657C20.9828 7.13276 21.2706 7.88312 21.3857 8.31602C21.5008 8.74892 21.6303 9.45599 21.7742 10.6248H17.6015L17.5152 9.51371C17.4576 8.89322 17.2994 7.76768 17.1555 7.01732C17.0116 6.26695 16.8965 5.64646 16.9253 5.63203C16.9389 5.63203 17.2363 5.45093 17.6098 5.22344L17.6735 5.1847Z" fill="#7100BF"/>
    <path d="M2.76698 6.65657C2.99719 6.18038 3.47201 5.41558 3.80295 4.96825C4.14827 4.50649 4.46482 4.13131 4.50798 4.13131C4.53676 4.13131 4.70942 4.26118 4.8677 4.43434C5.02597 4.59307 5.47201 4.93939 5.87489 5.1847C6.26338 5.43001 6.59431 5.63203 6.62309 5.63203C6.63748 5.64646 6.52237 6.26695 6.37849 7.01732C6.2346 7.76768 6.07633 8.89322 5.94683 10.6248H1.77417L1.8605 9.87446C1.90367 9.45599 2.04755 8.74892 2.14827 8.31602C2.26338 7.88312 2.55115 7.13276 2.76698 6.65657Z" fill="#7100BF"/>
    <path d="M16.1483 3.886C15.9037 3.33766 15.4864 2.60173 15.213 2.22655C14.8101 1.66378 14.767 1.53391 14.9684 1.53391C15.1123 1.53391 15.6735 1.76479 16.2346 2.03896C16.7814 2.32756 17.5152 2.77489 18.4648 3.55411L17.8461 4.04473C17.5152 4.30447 17.0835 4.6075 16.9109 4.69408C16.6087 4.83838 16.5655 4.79509 16.1483 3.886Z" fill="#7100BF"/>
    <path d="M5.68784 3.04906C6.01877 2.77489 6.75259 2.32756 7.31374 2.03896C7.8605 1.76479 8.42165 1.53391 8.56554 1.53391C8.76698 1.53391 8.72381 1.66378 8.32093 2.22655C8.04755 2.60173 7.63029 3.33766 7.38568 3.886C6.96841 4.79509 6.92525 4.83838 6.62309 4.69408C6.45043 4.6075 6.01877 4.30447 5.08352 3.55411L5.68784 3.04906Z" fill="#7100BF"/>
    <path d="M12.1051 3.65512C12.0907 2.26984 12.1195 1.11544 12.177 1.07215C12.2346 1.01443 12.4504 1.04329 12.6663 1.11544C12.8821 1.18759 13.3569 1.49062 13.7022 1.77922C14.0476 2.08225 14.5511 2.65945 14.7958 3.04906C15.0547 3.4531 15.4001 4.11688 15.8749 5.28571L15.2562 5.51659C14.9252 5.64646 14.177 5.83405 13.6015 5.94949C13.026 6.06493 12.4648 6.15152 12.3497 6.15152C12.1627 6.15152 12.1195 5.7619 12.1051 3.65512Z" fill="#7100BF"/>
    <path d="M9.83172 1.77922C10.1914 1.47619 10.6663 1.17316 10.9109 1.11544L11.3425 1L11.3713 3.53968C11.3857 4.93939 11.3857 6.09379 11.3713 6.12265C11.3569 6.15151 10.8533 6.09379 10.2634 5.99278C9.65906 5.9062 8.83892 5.70418 7.67345 5.28571L7.97561 4.53535C8.13388 4.11688 8.47921 3.4531 8.7382 3.04906C8.9828 2.65945 9.4864 2.08225 9.83172 1.77922Z" fill="#7100BF"/>
</svg>
