<svg width="19" height="18" viewBox="0 0 19 18" fill="none" xmlns="http://www.w3.org/2000/svg">
<path d="M3.68728 5.01138C1.7678 2.30152 0.20166 0.0742427 0.20166 0.0464017C0.20166 0.0185607 1.39537 0 5.50172 0L7.84138 3.29452C9.13059 5.11347 10.181 6.58904 10.181 6.58904C10.181 6.58904 11.4893 5.11346 16.0063 0H17.582L17.3719 0.26913C17.2478 0.417615 15.7485 2.1252 10.8973 7.60988L14.4879 12.6862C16.4647 15.4889 18.1359 17.8275 18.1932 17.8925C18.2792 17.9853 17.7921 18.0131 12.8549 17.9946L10.4198 14.5423C9.08284 12.6398 7.94643 11.09 7.88913 11.09C7.83183 11.0993 6.42803 12.6398 1.7296 17.9575L0.965632 17.9853C0.545448 17.9946 0.20166 17.9853 0.20166 17.9575C0.20166 17.9296 1.73915 16.1663 3.62044 14.0411C5.49217 11.916 7.05831 10.1156 7.10606 10.0506C7.14426 9.97636 5.95055 8.20382 3.68728 5.01138Z" fill="white"/>
</svg>
